<?xml version="1.0" encoding="utf-8"?>
<!-- Generator: Adobe Illustrator 16.0.4, SVG Export Plug-In . SVG Version: 6.00 Build 0)  -->
<!DOCTYPE svg PUBLIC "-//W3C//DTD SVG 1.1//EN" "http://www.w3.org/Graphics/SVG/1.1/DTD/svg11.dtd">
<svg version="1.1" id="Layer_1" xmlns="http://www.w3.org/2000/svg" xmlns:xlink="http://www.w3.org/1999/xlink" x="0px" y="0px"
	 width="684.651px" height="193.444px" viewBox="0 0 684.651 193.444" enable-background="new 0 0 684.651 193.444"
	 xml:space="preserve">
<g id="_x35_l2wEW.tif_1_">
	<g>
		<path fill="#93C156" d="M208.717,184.427c-0.095-0.244-0.192-0.494-0.291-0.739c1.753-1.433,3.503-2.865,5.333-4.361
			c-0.776-1.191-1.5-2.311-2.389-3.672c1.832-1.049,3.58-2.104,5.382-3.06c1.353-0.718,1.701-1.521,1.065-3.037
			c-0.564-1.349-0.888-2.896-0.913-4.366c-0.122-7.719-0.076-15.442-0.162-23.159c-0.105-9.126-0.193-18.208,2.785-27.046
			c2.819-8.368,3.725-16.999,3.188-25.867c-0.417-6.98,0.04-14.009-0.152-21.005c-0.061-2.261-0.85-4.526-1.508-6.723
			c-0.484-1.604-1.57-1.771-2.89-0.7c-0.746,0.612-1.597,1.096-2.917,1.98c0.274-1.524,0.367-2.314,0.565-3.073
			c0.479-1.812,1.676-3.729,1.383-5.392c-0.692-3.938-1.949-7.797-3.24-11.602c-0.885-2.618-0.373-6.107,1.615-7.893
			c1.17-1.056,1.323-4.677,0.633-6.298c-0.852-1.985-1.371-4.11-1.977-6.195c-0.32-1.095-0.304-2.334-0.806-3.318
			c-1.133-2.236-0.896-4.209,0.272-6.369c0.579-1.072,0.799-2.519,0.683-3.75c-0.238-2.536-1.882-5.042,0.125-7.558
			c0.155-0.194-0.045-0.669-0.101-1.201c-4.716,0-9.356-0.063-13.999,0.013c-9.155,0.154-18.311,0.507-27.463,0.527
			c-3.569,0.008-7.035-0.36-9.397,3.089c-0.235,0.347-0.699,0.566-1.099,0.756c-9.357,4.442-16.638,11.494-23.613,18.897
			c-0.603,0.637-1.017,1.994-0.769,2.79c0.52,1.68-0.168,2.528-1.521,2.822c-2.43,0.537-4.925,0.81-7.388,1.2
			c-2.021,0.321-4.222,0.248-6.012,1.068c-3.955,1.825-7.721,4.066-11.513,6.225c-0.624,0.357-1.494,1.296-1.375,1.708
			c0.206,0.691,1.052,1.27,1.741,1.727c1.18,0.786,3.201,1.194,3.524,2.193c0.821,2.549,2.406,1.767,3.372,1.546
			c1.048,1.214,1.969,1.994,2.5,2.987c0.447,0.837,0.697,1.968,0.528,2.872c-0.121,0.67-0.979,1.565-1.648,1.7
			c-3.505,0.736-3.524,0.667-2.569,4.266c0.138,0.517,0.307,1.032,0.449,1.552c2.204,7.867,2.221,7.917-5.363,10.955
			c-2.66,1.066-4.846,2.504-6.541,4.908c-0.86,1.227-2.366,2.449-3.786,2.763c-8.218,1.82-16.467,3.576-24.779,4.859
			c-2.238,0.348-5.812-0.242-6.91-1.755c-2.621-3.601-5.864-3.938-9.449-3.375c-4.456,0.705-8.724,0.188-13.071-0.685
			c-2.154-0.427-4.52-0.695-6.633-0.261c-4.027,0.825-8.023,1.984-11.86,3.461c-1.402,0.539-3.017,2.233-3.299,3.645
			c-0.622,3.138-0.591,6.43-0.556,9.652c0.014,0.93,0.719,2.333,1.494,2.698c3.491,1.647,4.461,4.495,1.731,7.499
			c-3.603,3.965-7.322,7.961-11.596,11.136c-4.797,3.555-10.225,6.281-15.464,9.207c-1.448,0.812-2.111,1.629-2.028,3.308
			c0.135,2.689,0.217,5.402-0.012,8.077c-0.23,2.663,0.771,3.236,3.31,3.232c47.956-0.075,95.913-0.057,143.872-0.048
			c3.782,0,7.85-0.892,10.464,3.104c0.046,0.063,0.152,0.121,0.233,0.127c3.373,0.199,3.835,3.03,4.815,5.368
			c0.864,2.065,1.764,4.133,2.467,6.259c1.039,3.116,3.042,5.174,6.096,6.351c2.027,0.784,3.417,2.163,4.776,4.021
			c2.543,3.487,5.774,6.472,8.793,9.597c0.457,0.478,1.284,0.612,1.955,0.849c4.062,1.428,8.1,2.95,12.21,4.213
			c1.795,0.553,2.486,1.493,2.375,3.266c-0.044,0.804,0.125,1.633,0.025,2.423c-0.29,2.236,0.468,3.801,2.693,4.413
			c-0.907,4.424,0.629,6.356,4.85,6.206c1.074-0.039,2.156-0.125,3.215-0.312c4.389-0.787,8.774-1.583,13.15-2.452
			c8.435-1.669,16.864-3.37,25.282-5.121c0.819-0.173,1.543-0.802,2.31-1.216c-0.065-0.208-0.129-0.415-0.193-0.627
			c-2.619-0.285-5.243-0.576-7.946-0.872c0.475-0.678,0.901-1.294,1.256-1.799C233.484,182.177,221.099,183.303,208.717,184.427z"/>
		<path fill-rule="evenodd" clip-rule="evenodd" fill="#93C156" d="M208.717,184.427c12.382-1.124,24.768-2.25,37.324-3.391
			c-0.355,0.505-0.782,1.121-1.256,1.799c2.704,0.296,5.327,0.587,7.946,0.872c0.064,0.212,0.128,0.419,0.193,0.627
			c-0.767,0.414-1.491,1.043-2.31,1.216c-8.418,1.751-16.847,3.452-25.282,5.121c-4.376,0.869-8.761,1.665-13.15,2.452
			c-1.059,0.188-2.141,0.273-3.215,0.312c-4.221,0.15-5.757-1.782-4.85-6.206c-2.226-0.612-2.983-2.177-2.693-4.413
			c0.101-0.79-0.069-1.619-0.025-2.423c0.111-1.772-0.58-2.713-2.375-3.266c-4.11-1.263-8.147-2.785-12.21-4.213
			c-0.671-0.236-1.499-0.371-1.955-0.849c-3.019-3.125-6.25-6.109-8.793-9.597c-1.359-1.858-2.75-3.237-4.776-4.021
			c-3.054-1.177-5.058-3.234-6.096-6.351c-0.703-2.126-1.603-4.193-2.467-6.259c-0.98-2.338-1.443-5.169-4.815-5.368
			c-0.081-0.006-0.187-0.063-0.233-0.127c-2.614-3.995-6.682-3.104-10.464-3.104c-47.959-0.009-95.916-0.027-143.872,0.048
			c-2.539,0.004-3.541-0.569-3.31-3.232c0.229-2.675,0.146-5.388,0.012-8.077c-0.083-1.679,0.58-2.496,2.028-3.308
			c5.239-2.926,10.667-5.652,15.464-9.207c4.273-3.175,7.993-7.171,11.596-11.136c2.73-3.004,1.759-5.852-1.731-7.499
			c-0.775-0.365-1.48-1.769-1.494-2.698c-0.035-3.223-0.066-6.515,0.556-9.652c0.282-1.411,1.896-3.105,3.299-3.645
			c3.837-1.477,7.833-2.636,11.86-3.461c2.113-0.435,4.479-0.166,6.633,0.261c4.347,0.872,8.615,1.39,13.071,0.685
			c3.585-0.563,6.828-0.226,9.449,3.375c1.099,1.513,4.672,2.103,6.91,1.755c8.312-1.283,16.561-3.039,24.779-4.859
			c1.42-0.313,2.926-1.536,3.786-2.763c1.695-2.404,3.881-3.842,6.541-4.908c7.583-3.038,7.567-3.088,5.363-10.955
			c-0.142-0.52-0.312-1.035-0.449-1.552c-0.955-3.599-0.936-3.529,2.569-4.266c0.668-0.135,1.527-1.03,1.648-1.7
			c0.168-0.904-0.082-2.035-0.528-2.872c-0.531-0.993-1.452-1.773-2.5-2.987c-0.966,0.221-2.551,1.003-3.372-1.546
			c-0.324-0.999-2.345-1.407-3.524-2.193c-0.689-0.457-1.536-1.035-1.741-1.727c-0.118-0.412,0.752-1.351,1.375-1.708
			c3.792-2.158,7.558-4.399,11.513-6.225c1.79-0.82,3.991-0.747,6.012-1.068c2.463-0.391,4.958-0.663,7.388-1.2
			c1.353-0.294,2.041-1.143,1.521-2.822c-0.248-0.796,0.166-2.153,0.769-2.79c6.975-7.403,14.256-14.455,23.613-18.897
			c0.4-0.189,0.863-0.409,1.099-0.756c2.362-3.45,5.828-3.081,9.397-3.089c9.153-0.021,18.308-0.374,27.463-0.527
			c4.642-0.076,9.283-0.013,13.999-0.013c0.055,0.531,0.256,1.006,0.101,1.201c-2.007,2.517-0.364,5.022-0.125,7.558
			c0.116,1.23-0.104,2.677-0.683,3.75c-1.168,2.159-1.405,4.132-0.272,6.369c0.501,0.984,0.485,2.224,0.806,3.318
			c0.605,2.085,1.125,4.21,1.977,6.195c0.69,1.621,0.538,5.242-0.633,6.298c-1.988,1.785-2.5,5.274-1.615,7.893
			c1.292,3.805,2.548,7.664,3.24,11.602c0.293,1.662-0.904,3.58-1.383,5.392c-0.198,0.759-0.291,1.549-0.565,3.073
			c1.32-0.885,2.171-1.368,2.917-1.98c1.32-1.07,2.406-0.903,2.89,0.7c0.658,2.196,1.448,4.462,1.508,6.723
			c0.191,6.996-0.265,14.024,0.152,21.005c0.538,8.868-0.368,17.499-3.188,25.867c-2.979,8.838-2.89,17.92-2.785,27.046
			c0.085,7.717,0.04,15.44,0.162,23.159c0.024,1.47,0.349,3.018,0.913,4.366c0.636,1.516,0.288,2.319-1.065,3.037
			c-1.802,0.956-3.55,2.011-5.382,3.06c0.889,1.361,1.613,2.48,2.389,3.672c-1.83,1.496-3.58,2.929-5.333,4.361
			C208.524,183.933,208.622,184.183,208.717,184.427z"/>
	</g>
</g>
<g id="lqnwzc.tif_2_">
	<g>
		<path fill="#FFFFFF" d="M128.927,59.574c-0.122,0.071-0.264,0.122-0.364,0.216c-0.639,0.609-1.295,1.202-1.892,1.853
			c-0.954,1.041-1.877,2.113-2.792,3.19c-0.423,0.499-0.807,1.033-1.19,1.563c-0.454,0.629-0.912,1.253-1.319,1.907
			c-0.446,0.725-0.853,1.475-1.249,2.229c-0.476,0.904-0.977,1.802-1.37,2.744c-0.479,1.148-0.892,2.33-1.267,3.518
			c-0.325,1.027-0.618,2.069-0.811,3.129c-0.254,1.382-0.422,2.78-0.58,4.177c-0.276,2.491-0.152,4.982,0.175,7.453
			c0.189,1.441,0.567,2.861,0.889,4.284c0.381,1.684,0.995,3.298,1.703,4.863c0.563,1.25,1.219,2.472,1.909,3.661
			c0.687,1.183,1.445,2.327,2.214,3.461c0.419,0.612,0.916,1.176,1.402,1.742c0.751,0.87,1.473,1.776,2.299,2.576
			c1.262,1.22,2.575,2.389,3.913,3.522c0.918,0.779,1.898,1.48,2.882,2.176c0.832,0.59,1.702,1.129,2.571,1.666
			c0.704,0.437,1.417,0.854,2.15,1.236c0.919,0.479,1.855,0.926,2.797,1.358c0.952,0.437,1.907,0.882,2.888,1.255
			c1.179,0.447,2.378,0.838,3.579,1.227c0.926,0.295,1.852,0.611,2.799,0.814c2.006,0.426,4.026,0.785,6.042,1.168
			c2.312,0.441,4.656,0.5,6.997,0.584c1.287,0.043,2.578-0.055,3.867-0.068c2.721-0.031,5.415-0.334,8.076-0.87
			c1.959-0.392,3.907-0.854,5.834-1.375c1.266-0.342,2.492-0.833,3.729-1.273c0.569-0.201,1.128-0.425,1.684-0.664
			c0.94-0.402,1.888-0.797,2.809-1.239c0.893-0.435,1.765-0.911,2.635-1.394c0.708-0.392,1.417-0.796,2.099-1.232
			c0.904-0.582,1.792-1.192,2.667-1.812c0.81-0.576,1.621-1.155,2.39-1.784c0.782-0.639,1.537-1.312,2.255-2.016
			c1.024-1.004,2.037-2.021,2.995-3.086c0.714-0.799,1.352-1.668,1.993-2.527c0.561-0.756,1.121-1.521,1.606-2.327
			c0.634-1.056,1.221-2.142,1.779-3.236c0.48-0.949,0.956-1.907,1.319-2.899c0.484-1.318,0.915-2.66,1.26-4.021
			c0.348-1.364,0.649-2.747,0.813-4.141c0.308-2.567,0.391-5.151,0.074-7.728c-0.177-1.435-0.405-2.864-0.691-4.283
			c-0.184-0.904-0.495-1.789-0.786-2.673c-0.37-1.119-0.707-2.256-1.187-3.327c-0.572-1.28-1.24-2.522-1.942-3.736
			c-0.688-1.186-1.431-2.349-2.233-3.46c-0.724-1.008-1.523-1.966-2.359-2.882c-1.038-1.137-2.144-2.209-3.229-3.301
			c-0.052-0.053-0.17-0.038-0.257-0.056c-0.021-0.071-0.018-0.166-0.064-0.209c-0.488-0.433-0.967-0.88-1.479-1.282
			c-0.781-0.613-1.579-1.206-2.382-1.79c-0.658-0.477-1.316-0.959-2.005-1.387c-0.979-0.607-1.979-1.183-2.983-1.747
			c-0.812-0.456-1.624-0.924-2.473-1.303c-1.412-0.634-2.841-1.236-4.285-1.789c-1.299-0.493-2.613-0.958-3.949-1.335
			c-1.567-0.442-3.153-0.832-4.752-1.14c-1.885-0.362-3.782-0.707-5.691-0.882c-2.807-0.25-5.624-0.352-8.447-0.204
			c-2.568,0.13-5.121,0.379-7.648,0.83c-2.592,0.463-5.141,1.115-7.642,1.921c-2.06,0.667-4.091,1.432-6.032,2.411
			c-1.451,0.731-2.896,1.474-4.318,2.259c-0.768,0.424-1.491,0.932-2.218,1.426c-0.887,0.601-1.767,1.217-2.632,1.846
			c-0.603,0.438-1.188,0.903-1.759,1.381C129.446,58.99,129.198,59.295,128.927,59.574z"/>
		<path fill-rule="evenodd" clip-rule="evenodd" fill="#4A3D2D" d="M200.503,59.736c0.086,0.018,0.205,0.003,0.257,0.056
			c1.084,1.092,2.191,2.164,3.229,3.301c0.836,0.916,1.636,1.874,2.359,2.882c0.802,1.111,1.545,2.274,2.233,3.46
			c0.702,1.214,1.371,2.456,1.942,3.736c0.48,1.071,0.817,2.208,1.187,3.327c0.291,0.884,0.602,1.769,0.786,2.673
			c0.287,1.419,0.515,2.849,0.691,4.283c0.317,2.576,0.234,5.16-0.074,7.728c-0.165,1.394-0.465,2.776-0.813,4.141
			c-0.345,1.36-0.776,2.702-1.26,4.021c-0.364,0.992-0.839,1.95-1.319,2.899c-0.558,1.095-1.145,2.181-1.779,3.236
			c-0.485,0.806-1.045,1.571-1.606,2.327c-0.641,0.859-1.278,1.729-1.993,2.527c-0.958,1.064-1.971,2.082-2.995,3.086
			c-0.718,0.704-1.473,1.377-2.255,2.016c-0.769,0.629-1.58,1.208-2.39,1.784c-0.876,0.62-1.764,1.23-2.667,1.812
			c-0.683,0.437-1.391,0.841-2.099,1.232c-0.87,0.482-1.743,0.959-2.635,1.394c-0.92,0.442-1.868,0.837-2.809,1.239
			c-0.556,0.239-1.115,0.463-1.684,0.664c-1.237,0.44-2.463,0.932-3.729,1.273c-1.928,0.521-3.875,0.983-5.834,1.375
			c-2.661,0.536-5.354,0.839-8.076,0.87c-1.289,0.014-2.581,0.111-3.867,0.068c-2.34-0.084-4.685-0.143-6.997-0.584
			c-2.016-0.383-4.035-0.742-6.042-1.168c-0.947-0.203-1.873-0.52-2.799-0.814c-1.2-0.389-2.4-0.779-3.579-1.227
			c-0.98-0.373-1.936-0.818-2.888-1.255c-0.942-0.433-1.878-0.879-2.797-1.358c-0.733-0.383-1.447-0.8-2.15-1.236
			c-0.869-0.537-1.739-1.076-2.571-1.666c-0.984-0.695-1.964-1.396-2.882-2.176c-1.338-1.134-2.651-2.303-3.913-3.522
			c-0.826-0.8-1.548-1.706-2.299-2.576c-0.486-0.566-0.983-1.13-1.402-1.742c-0.77-1.134-1.528-2.278-2.214-3.461
			c-0.69-1.189-1.346-2.411-1.909-3.661c-0.708-1.565-1.322-3.18-1.703-4.863c-0.322-1.423-0.7-2.843-0.889-4.284
			c-0.327-2.471-0.451-4.962-0.175-7.453c0.157-1.396,0.326-2.795,0.58-4.177c0.193-1.06,0.486-2.102,0.811-3.129
			c0.375-1.188,0.788-2.369,1.267-3.518c0.393-0.942,0.894-1.84,1.37-2.744c0.396-0.754,0.802-1.504,1.249-2.229
			c0.408-0.654,0.866-1.278,1.319-1.907c0.383-0.53,0.767-1.064,1.19-1.563c0.915-1.077,1.838-2.149,2.792-3.19
			c0.596-0.65,1.253-1.243,1.892-1.853c0.1-0.094,0.242-0.145,0.364-0.216c0.579,0.573,1.156,1.149,1.734,1.724
			c-0.157,0.191-0.301,0.395-0.471,0.571c-0.616,0.639-1.247,1.261-1.858,1.901c-0.575,0.606-1.181,1.193-1.689,1.85
			c-0.979,1.279-1.907,2.597-2.84,3.907c-0.972,1.362-1.735,2.848-2.409,4.372c-0.725,1.643-1.348,3.332-1.771,5.086
			c-0.435,1.793-0.895,3.584-0.928,5.428c-0.039,2.081-0.038,4.166,0.133,6.233c0.159,1.909,0.613,3.791,1.218,5.619
			c0.229,0.697,0.461,1.397,0.737,2.077c0.386,0.946,0.781,1.892,1.234,2.812c0.405,0.821,0.871,1.617,1.348,2.401
			c0.562,0.926,1.141,1.842,1.762,2.729c0.465,0.662,1.002,1.271,1.519,1.896c0.246,0.293,0.52,0.57,0.809,0.887
			c0.217-1.106,0.407-2.138,0.622-3.165c0.199-0.95,0.423-1.895,0.636-2.842c0.097-0.066,0.206-0.119,0.29-0.199
			c1.015-1.009,2.031-2.021,3.042-3.035c1.205-1.216,2.4-2.438,3.613-3.643c0.207-0.209,0.18-0.348-0.013-0.521
			c-0.174-0.156-0.342-0.327-0.511-0.492c-0.644-0.639-1.288-1.275-1.931-1.912c0.059-0.113,0.092-0.256,0.179-0.336
			c0.859-0.773,1.791-1.455,2.833-1.949c1.172-0.562,2.371-1.058,3.56-1.58c0.852-0.376,1.711-0.731,2.553-1.13
			c0.708-0.339,1.377-0.759,2.094-1.079c1.16-0.521,1.651-1.488,1.848-2.654c0.18-1.072,0.111-2.149-0.028-3.223
			c-0.128-0.991-0.299-1.969-0.831-2.848c-0.412-0.683-0.831-1.366-1.188-2.077c-0.569-1.141-1.049-2.314-1.33-3.563
			c-0.068-0.301-0.231-0.477-0.516-0.579c-0.651-0.234-1.229-0.585-1.682-1.116c-0.603-0.715-0.482-1.562,0.223-2.015
			c0.355-0.226,0.447-0.453,0.438-0.848c-0.056-2.109,0.016-4.207,0.59-6.263c0.375-1.341,0.966-2.554,1.834-3.625
			c0.733-0.904,1.651-1.617,2.716-2.085c0.725-0.32,1.518-0.481,2.262-0.756c1.131-0.425,2.313-0.484,3.49-0.525
			c1.688-0.056,3.357,0.016,5.004,0.521c1.36,0.416,2.619,0.984,3.725,1.877c1.058,0.853,1.9,1.882,2.454,3.128
			c0.126,0.282,0.288,0.426,0.638,0.363c0.464-0.079,0.944-0.081,1.414-0.133c0.429-0.049,0.76,0.105,0.964,0.472
			c0.24,0.429,0.463,0.871,0.644,1.331c0.095,0.245,0.178,0.357,0.466,0.328c1.006-0.104,2.015-0.172,3.021-0.271
			c0.173-0.02,0.356-0.095,0.502-0.191c1.134-0.756,2.267-1.518,3.385-2.298c0.235-0.165,0.413-0.424,0.59-0.657
			c0.179-0.241,0.275-0.564,0.495-0.748c0.649-0.551,1.336-1.058,2.021-1.562c0.768-0.564,1.572-1.08,2.318-1.674
			c1.157-0.916,2.913-1.096,4.154-0.348c1.779,1.072,2.755,2.664,2.905,4.724c0.047,0.645-0.048,1.312-0.169,1.954
			c-0.215,1.121-0.834,2.004-1.795,2.622c-0.647,0.417-1.32,0.8-1.991,1.183c-0.797,0.458-1.591,0.916-2.407,1.334
			c-0.447,0.227-0.938,0.376-1.427,0.564c0.638,0.399,1.311,0.826,1.992,1.236c0.068,0.041,0.21,0.026,0.28-0.024
			c0.566-0.376,1.123-0.77,1.68-1.161c0.427-0.299,0.819-0.527,1.42-0.389c1.448,0.333,2.925,0.532,4.381,0.825
			c0.65,0.135,1.287,0.347,1.914,0.564c0.163,0.057,0.271,0.271,0.404,0.411c-0.181,0.181-0.363,0.362-0.543,0.546
			c-0.072-0.014-0.179,0-0.209-0.045c-0.385-0.52-0.953-0.673-1.544-0.766c-1.297-0.212-2.596-0.4-3.895-0.614
			c-0.59-0.097-1.175-0.239-1.594,0.371c-0.008,0.008-0.025,0.011-0.036,0.018c-0.69,0.541-1.396,1.062-2.067,1.623
			c-0.397,0.33-0.485,1.066-0.178,1.401c0.398,0.435,0.747,0.583,1.351,0.161c0.59-0.413,1.167-0.84,1.76-1.244
			c0.165-0.112,0.376-0.255,0.55-0.237c1.309,0.125,2.614,0.288,3.918,0.456c0.093,0.012,0.17,0.152,0.256,0.233
			c-0.097,0.066-0.186,0.151-0.291,0.193c-0.065,0.029-0.156,0.003-0.235,0c-1.17-0.016-2.342-0.024-3.514-0.054
			c-0.274-0.008-0.397,0.1-0.478,0.352c-0.299,0.926,0.245,1.705,1.21,1.714c0.355,0.002,0.711,0,1.067,0.016
			c0.093,0.003,0.183,0.05,0.274,0.079c-0.18,0.178-0.36,0.353-0.541,0.53c-0.388,0.055-0.774,0.127-1.162,0.161
			c-0.347,0.029-0.614,0.19-0.647,0.52c-0.035,0.327,0,0.689,0.101,1.002c0.153,0.467,0.415,0.589,0.902,0.566
			c1.276-0.061,2.553-0.112,3.829-0.176c0.216-0.01,0.393,0.048,0.363,0.283c-0.013,0.093-0.194,0.225-0.312,0.24
			c-1.354,0.176-2.714,0.329-4.071,0.504c-0.153,0.02-0.345,0.095-0.431,0.209c-0.555,0.727-0.567,1.59-0.546,2.45
			c0.003,0.118,0.089,0.251,0.17,0.348c0.53,0.634,1.064,1.264,1.61,1.88c0.054,0.06,0.239,0.093,0.293,0.048
			c0.389-0.312,0.665-0.697,0.677-1.229c0.012-0.501-0.302-0.8-0.688-0.962c-0.353-0.145-0.367-0.337-0.288-0.663
			c1.151,0.049,2.292,0.099,3.432,0.148c0.015,0.057,0.029,0.113,0.043,0.168c-0.378,0.188-0.759,0.372-1.132,0.572
			c-0.133,0.07-0.306,0.159-0.355,0.282c-0.25,0.632-0.478,1.277-0.692,1.925c-0.276,0.833-0.528,1.718-0.209,2.551
			c0.255,0.664,0.15,1.239,0.012,1.86c-0.05,0.221-0.086,0.44-0.125,0.66c-0.221,1.257-0.431,2.512-0.667,3.767
			c-0.119,0.628-0.068,0.75,0.554,0.9c0.113,0.027,0.238,0.054,0.351,0.035c0.616-0.093,1.231-0.2,1.846-0.308
			c0.508,0.492,1.021,0.978,1.523,1.477c0.445,0.442,0.876,0.898,1.314,1.349c-0.111,0.412-0.179,0.837-0.341,1.225
			c-0.324,0.779-0.792,1.445-1.664,1.713c-0.642,0.195-1.275,0.107-1.909-0.042c-0.157-0.039-0.313-0.081-0.471-0.117
			c-0.016,0.045-0.033,0.09-0.05,0.133c0.518,0.379,1.124,0.629,1.73,0.799c1.315,0.366,2.526,0.149,3.518-0.896
			c0.314,0.372,0.645,0.683,0.879,1.056c0.669,1.062,1.386,2.106,1.926,3.235c0.626,1.306,1.138,2.676,1.595,4.052
			c0.331,0.992,0.51,2.035,0.722,3.065c0.133,0.647,0.198,1.31,0.296,1.966c0.106-0.109,0.151-0.217,0.17-0.33
			c0.102-0.596,0.202-1.191,0.292-1.792c0.287-1.915,0.054-3.77-0.84-5.488c-0.589-1.132-1.333-2.187-2.001-3.279
			c-0.664-1.081-1.32-2.167-1.974-3.251c-0.022-0.035,0.01-0.104,0.018-0.154c0.24,0.241,0.477,0.484,0.72,0.723
			c0.778,0.76,1.557,1.519,2.334,2.28c0.379,0.595,0.743,1.201,1.142,1.785c0.829,1.214,1.574,2.466,2.062,3.868
			c0.466,1.343,0.628,2.71,0.556,4.114c-0.021,0.392-0.065,0.784-0.104,1.258c0.2-0.183,0.337-0.286,0.448-0.411
			c0.595-0.673,1.215-1.332,1.768-2.039c0.815-1.044,1.612-2.104,2.362-3.194c0.497-0.722,0.931-1.491,1.33-2.272
			c0.621-1.212,1.251-2.427,1.757-3.69c0.473-1.179,0.807-2.412,1.175-3.63c0.537-1.782,0.877-3.606,1.001-5.462
			c0.247-3.715,0.031-7.393-1.04-10.981c-0.362-1.205-0.758-2.409-1.218-3.579c-0.382-0.974-0.845-1.923-1.336-2.847
			c-0.547-1.031-1.145-2.037-1.764-3.023c-0.403-0.645-0.87-1.247-1.336-1.845c-0.741-0.949-1.468-1.915-2.27-2.812
			c-0.719-0.803-1.534-1.525-2.302-2.286c-0.215-0.212-0.412-0.445-0.616-0.672C199.336,60.889,199.918,60.311,200.503,59.736z
			 M157.243,102.8c0.176-0.171,0.356-0.341,0.535-0.513c0.432-0.073,0.633,0.301,0.806,0.536c0.427,0.593,0.745,1.259,1.134,1.88
			c0.311,0.497,0.641,0.989,1.012,1.438c0.399,0.489,1.331,0.339,1.614-0.21c0.388-0.757,0.188-1.467-0.181-2.145
			c-0.462-0.853-0.939-1.695-1.432-2.53c-0.271-0.455-0.506-0.931-1.002-1.231c-0.544-0.331-1.035-0.751-1.547-1.135
			c-0.942-0.707-1.857-1.456-2.832-2.113c-0.864-0.585-2.158-0.349-2.862,0.411c-0.5,0.537-0.929,1.114-1.134,1.754
			c-0.352,0.099-0.689,0.122-0.941,0.28c-0.596,0.373-0.979,0.926-1.119,1.633c-0.081,0.412-0.19,0.813-0.289,1.221
			c-1.127,0.174-1.545,0.808-1.764,2.694c-0.078,0.032-0.162,0.063-0.247,0.097c-0.592,0.233-1.083,0.629-1.218,1.24
			c-0.188,0.841-0.339,1.714-0.324,2.572c0.053,2.725,0.189,5.447,0.296,8.173c0.004,0.094,0.025,0.187,0.051,0.354
			c0.152-0.267,0.275-0.452,0.369-0.648c0.581-1.206,1.115-2.434,1.741-3.614c0.388-0.727,0.575-1.446,0.453-2.261
			c-0.059-0.386-0.055-0.782-0.083-1.217c0.135,0.056,0.231,0.085,0.321,0.134c0.649,0.34,1.313,0.654,1.936,1.033
			c0.325,0.197,0.632,0.47,0.854,0.775c0.536,0.74,0.998,1.527,1.526,2.273c0.305,0.43,0.972,0.564,1.417,0.276
			c0.572-0.369,1.005-0.769,0.447-1.54c-0.106-0.148-0.175-0.324-0.259-0.488c-0.449-0.856-0.933-1.699-1.331-2.58
			c-0.229-0.508-0.667-0.699-1.077-0.954c-0.713-0.443-1.438-0.87-2.15-1.314c-0.102-0.063-0.213-0.186-0.227-0.294
			c-0.015-0.104,0.069-0.307,0.143-0.325c0.133-0.03,0.304,0.019,0.432,0.088c0.845,0.445,1.702,0.872,2.516,1.369
			c0.359,0.223,0.816,0.341,1.01,0.818c0.422,1.032,0.881,2.046,1.332,3.066c0.297,0.669,1.071,0.997,1.743,0.674
			c0.479-0.233,0.723-0.717,0.518-1.379c-0.135-0.439-0.328-0.857-0.499-1.284c-0.288-0.72-0.561-1.442-0.87-2.151
			c-0.289-0.659-0.463-1.38-1.132-1.823c-0.83-0.546-1.625-1.146-2.427-1.729c-0.255-0.186-0.52-0.365-0.731-0.593
			c-0.101-0.108-0.09-0.321-0.131-0.483c0.159-0.01,0.318-0.029,0.475-0.022c0.058,0.002,0.114,0.063,0.169,0.1
			c1.192,0.776,2.39,1.558,3.577,2.345c0.111,0.073,0.199,0.206,0.255,0.332c0.293,0.614,0.58,1.233,0.854,1.858
			c0.247,0.562,0.474,1.137,0.718,1.7c0.282,0.655,1.095,1.255,1.881,0.564c0.45-0.394,0.542-0.957,0.378-1.521
			c-0.131-0.451-0.327-0.885-0.505-1.319c-0.447-1.093-0.866-2.2-1.364-3.269C157.9,103.422,157.526,103.13,157.243,102.8z
			 M150.972,68.224c0.557-0.906,1.173-1.786,1.666-2.732c0.645-1.234,0.799-2.55,0.46-3.938c-0.289-1.185-0.953-2.1-1.869-2.819
			c-0.988-0.781-2.158-1.157-3.42-1.285c-0.73-0.075-1.34,0.051-1.939,0.519c-0.914,0.709-1.655,1.558-2.127,2.591
			c-0.415,0.896-0.711,1.864-0.953,2.826c-0.194,0.777-0.231,1.593-0.35,2.472c0.277-0.099,0.428-0.141,0.568-0.203
			c0.782-0.346,1.605-0.411,2.438-0.353c0.241,0.017,0.503,0.148,0.695,0.301c0.28,0.23,0.495,0.533,0.753,0.79
			c0.59,0.586,0.929,1.318,1.231,2.056c-0.623,0.157-1.227,0.286-1.819,0.46c-1.211,0.353-2.438,0.542-3.703,0.45
			c-0.453-0.031-0.849,0.259-0.873,0.643c-0.024,0.368,0.283,0.652,0.775,0.643c0.857-0.019,1.713-0.047,2.565-0.128
			c1.231-0.113,2.459-0.277,3.688-0.417c1.804-0.204,3.611-0.392,5.413-0.604c1.072-0.128,2.136-0.309,3.208-0.437
			c0.304-0.037,0.314-0.202,0.329-0.425c0.072-1.176,0.513-1.617,1.683-1.702c0.343-0.023,0.688-0.057,1.03-0.082
			c0.005-0.046,0.01-0.093,0.016-0.137c-0.284-0.066-0.57-0.189-0.852-0.18c-0.509,0.017-1.018,0.096-1.522,0.189
			c-0.73,0.133-1.454,0.301-2.181,0.453c1.312-1.264,2.958-1.615,4.694-1.8c0.106-1.05-0.074-2.074-0.387-3.057
			c-0.197-0.619-0.548-1.19-0.864-1.765c-0.676-1.231-1.707-2.135-2.871-2.857c-0.981-0.605-2.067-0.995-3.223-1.21
			c-1.576-0.289-3.116-0.172-4.655,0.188c-0.269,0.062-0.521,0.192-0.78,0.292c0.608,0.09,1.198,0.06,1.783,0.097
			c1.363,0.091,2.463,0.787,3.329,1.748c0.608,0.681,1.069,1.522,1.452,2.361c0.683,1.486,0.87,3.104,1.006,4.72
			c0.011,0.131-0.079,0.325-0.184,0.402c-0.53,0.379-1.044,0.814-1.634,1.067C152.697,67.727,151.789,67.958,150.972,68.224z
			 M180.654,65.586c-0.342-0.228-0.61-0.408-0.881-0.581c-1.153-0.745-1.957-1.786-2.254-3.109
			c-0.187-0.831-0.113-1.719-0.152-2.583c-0.009-0.201-0.001-0.4-0.001-0.666c-0.502,0.343-0.955,0.646-1.399,0.961
			c-0.066,0.044-0.104,0.149-0.127,0.233c-0.429,1.531-0.387,3.024,0.428,4.427c0.252,0.438,0.562,0.844,0.873,1.247
			c0.236,0.306,0.513,0.578,0.773,0.861c-0.024,0.043-0.048,0.086-0.071,0.125c-0.476-0.217-1.011-0.36-1.416-0.671
			c-1.458-1.125-1.887-2.729-1.889-4.518c-0.322,0.198-0.589,0.361-0.847,0.529c-0.776,0.514-1.558,1.018-2.317,1.553
			c-0.268,0.188-0.621,0.424-0.68,0.69c-0.114,0.529-0.097,1.102-0.045,1.648c0.063,0.693,0.384,1.307,0.872,1.806
			c0.341,0.353,0.716,0.668,1.061,0.986c-0.634-0.016-1.08-0.126-1.691-0.65c-1.152-0.988-1.443-2.316-1.241-3.785
			c-0.524,0.033-0.97,0.069-1.416,0.078c-0.272,0.005-0.355,0.129-0.369,0.385c-0.029,0.539-0.052,1.082-0.132,1.611
			c-0.077,0.5-0.125,1.007-0.513,1.418c-0.464,0.491-1.045,0.781-1.664,0.894c-0.782,0.143-1.593,0.127-2.393,0.179
			c-0.188,0.014-0.376,0.025-0.621,0.041c0.707,1.086-0.129,1.921-0.34,2.837c0.89,0.198,1.752,0.386,2.719,0.599
			c-0.665,0.325-1.23,0.596-1.789,0.88c-0.093,0.048-0.226,0.151-0.224,0.229c0.01,0.838,0.043,1.673,0.072,2.562
			c5.169-0.976,10.237-0.95,15.311,0.491c-0.383-3.043-2.236-5.11-4.282-7.074c0.955-0.599,1.864-1.188,2.797-1.743
			c0.332-0.195,0.718-0.302,1.079-0.446c0.334-0.14,0.669-0.269,1.002-0.411c0.129-0.056,0.25-0.136,0.374-0.209
			C179.706,66.147,180.153,65.882,180.654,65.586z M156.487,75.755c0.063,1.011,0.295,1.205,1.276,1.093
			c0.387-0.046,0.783-0.051,1.172-0.037c0.878,0.034,1.213-0.359,0.996-1.213c-0.069-0.281-0.174-0.553-0.224-0.835
			c-0.105-0.622-0.174-1.252-0.288-1.872c-0.026-0.144-0.146-0.325-0.272-0.383c-0.511-0.246-0.874-0.603-1.065-1.143
			c-0.143-0.401-0.303-0.797-0.461-1.205c-0.266,0.014-0.335,0.131-0.277,0.409c0.166,0.798,0.297,1.602,0.459,2.496
			c-0.439-0.484-0.803-0.887-1.167-1.291c-0.923,0.876-1.459,1.241-1.93,1.293c0.034-0.3,0.065-0.587,0.098-0.872
			c-0.466-0.078-0.938-0.057-1.301-0.248c-0.379-0.198-0.73-0.243-1.125-0.219c-0.163,0.01-0.327,0.002-0.545,0.002
			c0.266-0.303,0.483-0.55,0.752-0.854c-1.357,0.05-2.62,0.091-3.881,0.16c-0.095,0.004-0.268,0.185-0.26,0.271
			c0.04,0.384,0.131,0.764,0.205,1.149c0.019,0.096,0.085,0.204,0.058,0.283c-0.171,0.493-0.364,0.974-0.55,1.462
			c-0.097,0.254-0.769,0.447-0.923,0.256c-0.162-0.203-0.289-0.438-0.458-0.636c-0.553-0.643-1.103-1.291-1.691-1.9
			c-0.125-0.133-0.445-0.213-0.599-0.146c-0.154,0.073-0.268,0.347-0.297,0.548c-0.043,0.281-0.027,0.583,0.026,0.865
			c0.282,1.465,0.76,2.86,1.542,4.145c0.611,1.005,1.036,1.228,2.042,1.053c0.196,1.389,0.574,2.688,1.386,3.877
			c0.675,0.991,1.581,1.677,2.551,2.301c0.502,0.32,1.094,0.498,1.625,0.783c0.427,0.229,0.87,0.297,1.334,0.239
			c0.809-0.099,1.55-0.614,1.549-1.441c-0.001-0.458,0.01-0.92,0.076-1.374c0.047-0.34,0.045-0.603-0.283-0.81
			c-0.141-0.089-0.221-0.274-0.328-0.417c0.158-0.043,0.271-0.026,0.367,0.027c0.247,0.128,0.396,0.105,0.504-0.189
			c0.073-0.196,0.238-0.355,0.365-0.531c0.095-0.131,0.196-0.262,0.373-0.495c-0.37,0-0.627,0-0.884,0c-0.261,0-0.522,0-0.783,0
			c0.402-0.322,0.808-0.559,1.222-0.778c0.397-0.211,0.773-0.495,1.277-0.377c0.075-0.359,0.141-0.688,0.212-1.054
			c-0.263-0.058-0.492-0.107-0.719-0.16c-0.245-0.057-0.488-0.11-0.729-0.176c-0.702-0.192-1.007-0.731-0.78-1.416
			C156.211,76.167,156.367,75.969,156.487,75.755z M157.712,84.454c0.123-0.13,0.169-0.172,0.206-0.217
			c0.778-0.96,1.767-1.663,2.868-2.165c1.02-0.463,2.106-0.783,3.17-1.15c1.432-0.493,2.933-0.62,4.425-0.765
			c2.547-0.25,5.071-0.045,7.576,0.466c1.314,0.271,2.574,0.694,3.806,1.226c0.969,0.416,1.848,0.964,2.663,1.617
			c0.235,0.189,0.443,0.412,0.663,0.616c0.033-0.017,0.064-0.034,0.097-0.05c0-0.972,0.025-1.946-0.019-2.914
			c-0.01-0.221-0.209-0.486-0.396-0.64c-0.543-0.449-1.086-0.919-1.697-1.257c-0.914-0.507-1.86-0.979-2.842-1.33
			c-0.87-0.311-1.805-0.45-2.717-0.643c-3.117-0.664-6.246-0.649-9.381-0.126c-2.233,0.375-4.386,0.978-6.319,2.194
			c-0.548,0.346-1.062,0.76-1.551,1.189c-0.233,0.206-0.508,0.514-0.526,0.789C157.673,82.304,157.712,83.32,157.712,84.454z
			 M182.866,92.542c0-0.9,0.012-1.818-0.01-2.735c-0.005-0.189-0.092-0.413-0.216-0.558c-0.831-0.944-1.891-1.607-3.035-2.055
			c-1.236-0.489-2.533-0.868-3.832-1.164c-2.989-0.68-6.013-0.616-9.032-0.213c-1.41,0.188-2.8,0.511-4.109,1.07
			c-0.91,0.388-1.796,0.853-2.651,1.354c-0.453,0.265-0.857,0.643-1.211,1.035c-0.212,0.235-0.37,0.537-0.349,0.928
			c0.044,0.858,0.014,1.722,0.014,2.61c0.448-0.408,0.818-0.827,1.267-1.136c0.702-0.486,1.419-0.981,2.197-1.321
			c1.346-0.589,2.755-0.986,4.209-1.265c2.468-0.472,4.943-0.475,7.423-0.269c1.588,0.13,3.151,0.461,4.657,0.98
			c0.914,0.315,1.81,0.722,2.646,1.203C181.55,91.425,182.172,92.003,182.866,92.542z M188.528,103.201
			c-0.498-0.741-0.944-1.415-1.4-2.084c-0.488-0.713-0.99-1.415-1.478-2.129c-0.554-0.811-1.091-1.631-1.65-2.438
			c-0.439-0.636-0.958-1.226-1.329-1.898c-0.292-0.531-0.712-0.691-1.223-0.677c-1.384,0.031-2.447,0.649-3.166,1.844
			c-0.485,0.808-0.661,1.562,0.01,2.415c0.847,1.076,1.571,2.249,2.357,3.374c0.644,0.922,1.302,1.834,1.955,2.747
			c0.346,0.483,0.696,0.966,1.059,1.471C184.377,103.763,186.01,102.719,188.528,103.201z M180.771,122.167
			c2.892-0.854,5.592-1.978,8.255-3.311c-2.2-3.315-4.367-6.58-6.583-9.917C181.939,113.381,181.687,117.787,180.771,122.167z
			 M192.525,115.428c0.981-0.469,1.827-1.068,2.594-1.765c-0.255-0.404-0.469-0.76-0.701-1.107
			c-0.504-0.751-1.023-1.488-1.529-2.237c-0.533-0.795-1.049-1.599-1.583-2.391c-0.496-0.74-1.021-1.463-1.5-2.214
			c-0.412-0.645-0.81-1.268-1.72-1.142c-0.027,0.003-0.053,0-0.081,0c-0.469,0.05-0.91,0.163-1.195,0.587
			c-0.435,0.655-0.428,1.538,0.012,2.168c0.841,1.2,1.682,2.401,2.523,3.598C190.394,112.415,191.446,113.902,192.525,115.428z
			 M163.881,91.884c0.138,0.008,0.212,0.021,0.282,0.012c1.25-0.152,2.459-0.038,3.614,0.509c0.401,0.188,0.566,0.514,0.468,0.961
			c-0.201,0.949-0.397,1.902-0.586,2.854c-0.089,0.456-0.156,0.914-0.234,1.371c0.127-0.139,0.184-0.297,0.253-0.448
			c0.479-1.05,0.971-2.089,1.434-3.145c0.232-0.526,0.508-0.829,1.177-0.853c2.21-0.071,4.416-0.237,6.623-0.372
			c0.297-0.018,0.593-0.062,0.855-0.087c0-0.671,0-1.299,0-1.957c-2.342-0.588-4.655-1.029-7.044-1.012
			c-1.566,0.013-3.078,0.275-4.542,0.822C165.36,90.849,164.609,91.278,163.881,91.884z M157.688,114.178
			c-0.553,0.215-0.995,0.182-1.41-0.076c-0.222-0.14-0.302,0.036-0.4,0.174c-0.689,0.968-1.57,1.529-2.815,1.359
			c-0.105-0.015-0.278,0.082-0.333,0.177c-0.268,0.448-0.504,0.915-0.754,1.375c-0.481,0.89-0.967,1.772-1.444,2.663
			c-0.311,0.583-0.61,1.173-0.929,1.787c0.167,0.069,0.282,0.138,0.406,0.163c1.128,0.243,2.261,0.468,3.387,0.721
			c0.34,0.075,0.483-0.072,0.591-0.346c0.105-0.269,0.218-0.536,0.34-0.797c0.424-0.902,0.86-1.799,1.281-2.7
			c0.405-0.874,0.797-1.754,1.199-2.629C157.079,115.458,157.362,114.871,157.688,114.178z M170.597,103.632
			c-0.05,0.002-0.103,0.005-0.154,0.006c-0.169-0.98-0.338-1.969-0.51-2.96c-0.791,0.291-0.815,0.322-0.819,1.076
			c-0.002,0.858-0.007,1.717-0.012,2.57c-0.001,0.153-0.001,0.301-0.001,0.571c1.235-0.593,2.455-0.804,3.714-0.788
			c1.256,0.014,2.475,0.253,3.651,0.75c0.036-0.118,0.06-0.166,0.062-0.217c0.058-0.985,0.118-1.969,0.168-2.957
			c0.024-0.471-0.175-0.722-0.712-0.903c-0.089,0.957-0.178,1.902-0.267,2.849c-0.075-0.07-0.104-0.14-0.112-0.213
			c-0.114-0.902-0.229-1.803-0.337-2.705c-0.03-0.256-0.054-0.503-0.417-0.438c-0.123,1.003-0.246,1.984-0.368,2.969
			c-0.072-0.046-0.083-0.082-0.088-0.121c-0.115-0.911-0.218-1.83-0.349-2.744c-0.017-0.111-0.166-0.208-0.255-0.314
			c-0.071,0.104-0.19,0.195-0.207,0.301c-0.129,0.866-0.242,1.733-0.369,2.698c-0.172-1.057-0.327-2.021-0.481-2.971
			c-0.627-0.044-0.627-0.044-0.702,0.502c-0.01,0.075-0.015,0.154-0.025,0.233c-0.099,0.725-0.199,1.45-0.311,2.271
			c-0.159-1.008-0.301-1.908-0.44-2.788c-0.491-0.017-0.692,0.185-0.657,0.617c0.008,0.092-0.004,0.182-0.004,0.271
			C170.597,102.008,170.597,102.819,170.597,103.632z M163.943,101.042c0.494-1.144,0.966-2.222,1.425-3.306
			c0.491-1.155,0.958-2.326,1.46-3.479c0.326-0.746,0.323-0.796-0.474-0.902c-0.713-0.099-1.425-0.32-2.149-0.077
			c-0.103,0.037-0.233,0.088-0.285,0.172c-0.146,0.231-0.258,0.483-0.38,0.728c-0.528,1.053-1.057,2.105-1.583,3.16
			c-0.235,0.474-0.469,0.948-0.728,1.477C162.642,98.949,163.322,99.903,163.943,101.042z M150.457,111.835
			c-0.402,0.726-0.735,1.315-1.059,1.907c-0.196,0.355-0.379,0.715-0.568,1.071c-0.414,0.787-0.821,1.574-1.24,2.356
			c-0.432,0.812-0.879,1.609-1.303,2.421c-0.043,0.08-0.01,0.277,0.052,0.317c0.391,0.251,0.8,0.473,1.231,0.718
			c0.627-1.102,1.235-2.183,1.856-3.257c0.623-1.076,1.264-2.142,1.887-3.22c0.112-0.197,0.29-0.49,0.219-0.63
			C151.242,112.966,150.864,112.459,150.457,111.835z M169.839,106.368c-0.83,5.708-1.653,11.379-2.478,17.046
			c0.882,0.145,0.893,0.137,1.017-0.634c0.006-0.044,0.01-0.08,0.015-0.119c0.24-2.09,0.475-4.176,0.729-6.266
			c0.384-3.158,0.778-6.318,1.188-9.475C170.36,106.533,170.203,106.432,169.839,106.368z M168.515,84.877
			c2.312-0.483,4.546-0.268,6.77,0.299c0-0.499,0.008-0.905-0.007-1.31c-0.002-0.072-0.084-0.163-0.153-0.207
			c-1.123-0.744-2.326-1.214-3.71-1.023c-0.951,0.134-1.819,0.499-2.651,0.957c-0.113,0.063-0.221,0.232-0.237,0.363
			C168.491,84.239,168.515,84.531,168.515,84.877z M148.381,82.624c-0.021,0.176-0.036,0.228-0.032,0.276
			c0.063,0.956,0.123,1.915,0.2,2.87c0.066,0.811,0.033,1.601,0.741,2.27c0.916,0.862,1.828,1.691,2.999,2.162
			c0.438,0.176,0.928,0.225,1.394,0.331C151.638,88.09,149.735,85.611,148.381,82.624z M143.862,117.907
			c-0.081-1.504,0.244-2.936,0.542-4.444c-3.5,1.098-7.045,1.176-10.619,1.031c0.194,0.078,0.395,0.119,0.592,0.173
			c2.425,0.628,4.89,0.855,7.387,0.737c0.987-0.046,1.023-0.026,1.351,0.922c0.009,0.027,0.016,0.053,0.026,0.074
			C143.381,116.903,143.622,117.405,143.862,117.907z M181.345,77.815c0.022-0.113,0.039-0.151,0.033-0.188
			c-0.218-1.653-0.411-3.31-0.663-4.958c-0.15-0.973-0.388-1.931-0.598-2.891c-0.03-0.133-0.092-0.302-0.195-0.369
			c-0.565-0.359-1.148-0.69-1.725-1.034c0.195,0.434,0.46,0.787,0.684,1.164c0.231,0.392,0.555,0.712,0.579,1.247
			c0.094,2.037,0.254,4.068,0.398,6.103c0.008,0.118,0.057,0.296,0.142,0.336C180.428,77.435,180.874,77.611,181.345,77.815z
			 M190.625,116.372c-0.162-0.289-0.283-0.521-0.42-0.743c-0.636-1.023-1.277-2.045-1.917-3.069
			c-0.668-1.064-1.276-2.173-2.037-3.168c-0.357-0.468-1.008-0.711-1.525-1.059c-0.029,0.04-0.059,0.076-0.089,0.115
			c1.73,2.902,3.46,5.807,5.218,8.756C190.146,116.888,190.384,116.629,190.625,116.372z M146.342,68.879
			c0.02-0.053,0.038-0.1,0.057-0.149c-0.406-0.889-0.809-1.776-1.224-2.663c-0.032-0.07-0.161-0.131-0.247-0.133
			c-0.722-0.017-1.446-0.032-2.168-0.017c-0.1,0-0.277,0.159-0.28,0.252c-0.034,0.749-0.04,1.498-0.031,2.248
			c0.001,0.089,0.127,0.251,0.203,0.255C143.882,68.753,145.113,68.813,146.342,68.879z M164.897,65.024
			c-0.188-0.774-0.342-1.536-0.56-2.271c-0.083-0.276-0.288-0.533-0.487-0.75c-0.104-0.116-0.395-0.231-0.467-0.174
			c-0.213,0.166-0.432,0.392-0.517,0.643c-0.285,0.843-0.26,1.723-0.056,2.571c0.136,0.563,0.365,1.119,0.632,1.634
			c0.091,0.177,0.424,0.29,0.655,0.302c0.126,0.007,0.335-0.229,0.39-0.392C164.651,66.082,164.761,65.557,164.897,65.024z
			 M180.811,58.038c1.211-0.023,1.897,0.64,2.325,1.643c0.417,0.976,0.428,1.955-0.136,2.985c0.76-0.256,1.081-0.716,1.32-1.314
			c0.502-1.252-0.18-3.489-1.687-4.005C181.962,57.115,181.189,57.361,180.811,58.038z M146.639,88.638
			c-0.023,0.007-0.046,0.012-0.07,0.019c0.119,0.383,0.232,0.767,0.355,1.15c0.294,0.91,0.593,1.819,0.894,2.729
			c0.213,0.646,0.44,1.291,0.651,1.94c0.081,0.245,0.194,0.353,0.482,0.301c0.517-0.09,1.045-0.145,1.567-0.181
			c0.172-0.011,0.37,0.053,0.523,0.143c0.344,0.192,0.669,0.42,1.001,0.636c0.027-0.023,0.053-0.041,0.078-0.06
			c-0.206-0.358-0.424-0.707-0.616-1.075c-0.423-0.798-0.417-0.802-1.267-0.51c-0.615,0.208-0.638,0.199-0.989-0.35
			c-0.007-0.01-0.018-0.018-0.024-0.031c-0.485-0.882-0.97-1.768-1.456-2.652C147.392,90.008,147.015,89.327,146.639,88.638z
			 M185.41,63.892c-0.007-0.006-0.017-0.02-0.023-0.02c-0.038,0.011-0.076,0.02-0.112,0.032c-1.331,0.53-2.548,0.28-3.675-0.544
			c-1.235-0.898-1.926-2.135-2.12-3.634c-0.123-0.957-0.147-1.928,0.286-2.826c0.253-0.526,0.581-1.017,0.877-1.524
			c-0.944,0.674-1.481,1.631-1.666,2.74c-0.314,1.874,0.138,3.564,1.452,4.984c0.95,1.033,2.106,1.541,3.513,1.375
			C184.474,64.415,185.017,64.329,185.41,63.892z M160.304,70.237c-0.044-0.77-0.266-1.476-0.601-2.133
			c-0.091-0.179-0.348-0.368-0.539-0.377c-0.147-0.009-0.413,0.232-0.448,0.4c-0.235,1.141-0.265,2.274,0.441,3.293
			c0.096,0.141,0.309,0.273,0.464,0.272c0.137-0.006,0.336-0.182,0.389-0.327C160.143,71.002,160.21,70.615,160.304,70.237z
			 M185.55,62.877c0.403,0.006,0.557-0.205,0.665-0.526c0.369-1.113,0.479-2.217,0.152-3.373c-0.475-1.674-1.4-2.921-3.04-3.592
			c-0.287-0.117-0.518-0.099-0.743,0.129C185.291,56.45,186.843,59.965,185.55,62.877z M183.519,74.321
			c0.197-0.902,0.375-1.718,0.552-2.53C183.754,72.576,183.238,73.319,183.519,74.321z M184.197,74.811
			c-0.295,0.766-0.639,1.522-0.25,2.466C184.038,76.383,184.118,75.598,184.197,74.811z M166.288,62.42
			c-0.002-0.02-0.003-0.039-0.006-0.059c-0.427,0-0.852,0-1.276,0c-0.024,0.486,0.039,0.533,0.44,0.379
			C165.726,62.627,166.008,62.527,166.288,62.42z M166.602,66.532c0.002-0.03,0.004-0.055,0.007-0.081
			c-0.424-0.049-0.846-0.097-1.283-0.146c-0.02,0.165-0.035,0.303-0.059,0.5C165.742,66.708,166.171,66.619,166.602,66.532z
			 M166.711,65.458c-0.005-0.031-0.008-0.062-0.011-0.092c-0.406-0.038-0.813-0.076-1.263-0.119
			c0.009,0.169,0.015,0.304,0.025,0.481C165.911,65.631,166.312,65.544,166.711,65.458z M165.352,63.76
			c0.438-0.14,0.826-0.265,1.213-0.391c-0.007-0.015-0.013-0.03-0.021-0.041c-0.421,0-0.844,0-1.299,0
			C165.281,63.473,165.307,63.583,165.352,63.76z M166.759,64.456c-0.002-0.026-0.005-0.056-0.007-0.079
			c-0.452-0.026-0.905-0.048-1.353-0.074c-0.045,0.35,0.056,0.465,0.372,0.374C166.095,64.586,166.43,64.53,166.759,64.456z
			 M165.885,61.704c-0.001-0.024-0.001-0.049-0.002-0.07c-0.48-0.043-0.961-0.083-1.441-0.126c-0.02,0.053-0.037,0.103-0.056,0.151
			c0.132,0.081,0.267,0.237,0.392,0.228C165.149,61.862,165.516,61.769,165.885,61.704z M161.619,71.35
			c-0.004-0.024-0.005-0.046-0.007-0.072c-0.303-0.047-0.605-0.1-0.953-0.159c-0.014,0.167-0.024,0.29-0.038,0.462
			C160.995,71.493,161.308,71.423,161.619,71.35z M160.427,68.512c0.344-0.136,0.636-0.249,0.928-0.359
			c-0.008-0.029-0.016-0.058-0.024-0.087c-0.32,0.016-0.641,0.029-0.985,0.044C160.372,68.242,160.393,68.34,160.427,68.512z
			 M161.135,67.474c-0.429,0-0.779,0-1.133,0C160.093,67.82,160.444,67.833,161.135,67.474z M160.712,69.572
			c0.032,0.413,0.032,0.413,1.016,0.09C161.403,69.633,161.078,69.606,160.712,69.572z M160.723,70.307
			c0.024,0.137,0.04,0.31,0.055,0.31c0.317-0.007,0.638-0.027,0.957-0.045c-0.001-0.039-0.002-0.079-0.002-0.115
			C161.429,70.413,161.125,70.368,160.723,70.307z M160.524,68.838c0.082,0.14,0.134,0.276,0.166,0.272
			c0.321-0.044,0.639-0.113,0.958-0.175c-0.007-0.03-0.014-0.064-0.021-0.098C161.29,68.838,160.951,68.838,160.524,68.838z"/>
		<path fill-rule="evenodd" clip-rule="evenodd" fill="#4A3D2D" d="M200.503,59.736c-0.585,0.575-1.167,1.153-1.751,1.729
			c-0.454-0.369-0.895-0.756-1.365-1.099c-1.287-0.95-2.556-1.927-3.889-2.807c-1.32-0.872-2.685-1.686-4.079-2.431
			c-1.188-0.633-2.427-1.179-3.675-1.688c-1.664-0.678-3.343-1.329-5.044-1.896c-1.165-0.391-2.373-0.667-3.58-0.913
			c-1.66-0.334-3.331-0.631-5.009-0.869c-1.484-0.208-2.979-0.392-4.475-0.447c-3.859-0.143-7.719-0.093-11.541,0.569
			c-1.745,0.304-3.494,0.612-5.209,1.046c-1.558,0.39-3.085,0.92-4.607,1.444c-1.165,0.402-2.31,0.86-3.442,1.345
			c-0.868,0.371-1.712,0.802-2.547,1.239c-1.102,0.58-2.213,1.146-3.268,1.805c-1.165,0.727-2.29,1.525-3.397,2.34
			c-0.874,0.642-1.692,1.358-2.543,2.03c-0.112,0.087-0.278,0.108-0.42,0.163c-0.578-0.574-1.156-1.15-1.734-1.724
			c0.271-0.278,0.519-0.584,0.815-0.832c0.571-0.478,1.156-0.942,1.759-1.381c0.865-0.629,1.745-1.245,2.632-1.846
			c0.727-0.494,1.45-1.002,2.218-1.426c1.423-0.785,2.868-1.527,4.318-2.259c1.94-0.979,3.972-1.744,6.032-2.411
			c2.501-0.806,5.05-1.458,7.642-1.921c2.528-0.451,5.081-0.7,7.648-0.83c2.824-0.147,5.641-0.046,8.447,0.204
			c1.909,0.175,3.806,0.52,5.691,0.882c1.599,0.308,3.185,0.697,4.752,1.14c1.336,0.377,2.65,0.842,3.949,1.335
			c1.444,0.553,2.873,1.155,4.285,1.789c0.849,0.379,1.661,0.847,2.473,1.303c1.004,0.564,2.005,1.14,2.983,1.747
			c0.689,0.428,1.347,0.91,2.005,1.387c0.803,0.584,1.601,1.177,2.382,1.79c0.513,0.402,0.991,0.85,1.479,1.282
			C200.486,59.57,200.482,59.665,200.503,59.736z"/>
		<path fill-rule="evenodd" clip-rule="evenodd" fill="#FFFFFF" d="M130.662,61.297c0.142-0.055,0.308-0.076,0.42-0.163
			c0.852-0.672,1.67-1.389,2.543-2.03c1.107-0.814,2.232-1.613,3.397-2.34c1.054-0.659,2.166-1.225,3.268-1.805
			c0.835-0.438,1.68-0.868,2.547-1.239c1.132-0.484,2.278-0.942,3.442-1.345c1.521-0.524,3.049-1.055,4.607-1.444
			c1.716-0.434,3.464-0.742,5.209-1.046c3.822-0.662,7.681-0.712,11.541-0.569c1.496,0.056,2.991,0.239,4.475,0.447
			c1.678,0.238,3.349,0.535,5.009,0.869c1.207,0.246,2.415,0.522,3.58,0.913c1.702,0.567,3.381,1.219,5.044,1.896
			c1.248,0.509,2.487,1.055,3.675,1.688c1.394,0.745,2.758,1.559,4.079,2.431c1.333,0.88,2.602,1.856,3.889,2.807
			c0.47,0.343,0.911,0.729,1.365,1.099c0.205,0.227,0.401,0.46,0.616,0.672c0.769,0.761,1.583,1.483,2.302,2.286
			c0.802,0.897,1.529,1.863,2.27,2.812c0.466,0.598,0.933,1.2,1.336,1.845c0.619,0.986,1.216,1.992,1.764,3.023
			c0.491,0.924,0.954,1.873,1.336,2.847c0.459,1.17,0.856,2.374,1.218,3.579c1.071,3.589,1.287,7.267,1.04,10.981
			c-0.124,1.855-0.464,3.68-1.001,5.462c-0.368,1.218-0.702,2.451-1.175,3.63c-0.506,1.264-1.137,2.479-1.757,3.69
			c-0.399,0.781-0.833,1.551-1.33,2.272c-0.75,1.091-1.547,2.15-2.362,3.194c-0.553,0.707-1.173,1.366-1.768,2.039
			c-0.111,0.125-0.248,0.229-0.448,0.411c0.039-0.474,0.083-0.866,0.104-1.258c0.072-1.404-0.09-2.771-0.556-4.114
			c-0.488-1.402-1.234-2.654-2.062-3.868c-0.399-0.584-0.763-1.19-1.142-1.785c-0.108-0.219-0.21-0.443-0.324-0.655
			c-0.428-0.804-0.865-1.603-1.29-2.409c-0.251-0.476-0.488-0.962-0.731-1.44c-0.02-0.103-0.033-0.2-0.061-0.299
			c-0.271-0.97-0.557-1.94-0.817-2.912c-0.18-0.672-0.341-1.342-0.796-1.905c-0.371-0.461-0.81-0.798-1.428-0.956
			c0.191-0.755,0.375-1.478,0.556-2.203c0.301-1.185,0.589-2.371,0.904-3.55c0.346-1.294,0.742-2.575,1.071-3.874
			c0.201-0.79,0.185-1.582-0.189-2.35c-0.104-0.217-0.078-0.5-0.085-0.753c-0.016-0.538,0.063-1.09-0.042-1.605
			c-0.08-0.385-0.316-0.809-0.615-1.06c-0.253-0.213-0.329-0.371-0.31-0.669c0.057-0.877-0.174-1.636-0.98-2.127
			c-0.198-0.12-0.267-0.269-0.233-0.52c0.054-0.396-0.236-0.835-0.532-0.911c-0.132-0.141-0.241-0.354-0.404-0.411
			c-0.627-0.218-1.264-0.43-1.914-0.564c-1.457-0.293-2.934-0.492-4.381-0.825c-0.602-0.139-0.993,0.09-1.42,0.389
			c-0.557,0.392-1.113,0.785-1.68,1.161c-0.069,0.051-0.212,0.065-0.28,0.024c-0.681-0.41-1.354-0.837-1.992-1.236
			c0.49-0.188,0.98-0.338,1.427-0.564c0.816-0.418,1.609-0.876,2.407-1.334c0.67-0.383,1.343-0.766,1.991-1.183
			c0.961-0.618,1.58-1.501,1.795-2.622c0.121-0.642,0.216-1.31,0.169-1.954c-0.15-2.06-1.126-3.651-2.905-4.724
			c-1.242-0.748-2.998-0.568-4.154,0.348c-0.746,0.594-1.55,1.109-2.318,1.674c-0.685,0.505-1.372,1.012-2.021,1.562
			c-0.219,0.184-0.316,0.507-0.495,0.748c-0.177,0.233-0.354,0.492-0.59,0.657c-1.118,0.78-2.251,1.542-3.385,2.298
			c-0.146,0.097-0.329,0.172-0.502,0.191c-1.006,0.1-2.014,0.167-3.021,0.271c-0.288,0.029-0.371-0.083-0.466-0.328
			c-0.181-0.46-0.404-0.902-0.644-1.331c-0.204-0.366-0.535-0.521-0.964-0.472c-0.47,0.052-0.95,0.054-1.414,0.133
			c-0.35,0.062-0.512-0.081-0.638-0.363c-0.554-1.246-1.396-2.275-2.454-3.128c-1.106-0.893-2.365-1.461-3.725-1.877
			c-1.647-0.506-3.317-0.577-5.004-0.521c-1.177,0.041-2.359,0.101-3.49,0.525c-0.745,0.274-1.537,0.436-2.262,0.756
			c-1.065,0.468-1.983,1.181-2.716,2.085c-0.868,1.071-1.458,2.284-1.834,3.625c-0.574,2.056-0.646,4.153-0.59,6.263
			c0.009,0.395-0.083,0.622-0.438,0.848c-0.706,0.452-0.826,1.3-0.223,2.015c0.453,0.531,1.031,0.882,1.682,1.116
			c0.284,0.103,0.448,0.278,0.516,0.579c0.281,1.249,0.76,2.423,1.33,3.563c0.357,0.711,0.777,1.395,1.188,2.077
			c0.532,0.879,0.703,1.856,0.831,2.848c0.139,1.073,0.208,2.15,0.028,3.223c-0.197,1.166-0.688,2.134-1.848,2.654
			c-0.717,0.32-1.386,0.74-2.094,1.079c-0.842,0.398-1.701,0.754-2.553,1.13c-1.189,0.522-2.388,1.019-3.56,1.58
			c-1.042,0.494-1.974,1.176-2.833,1.949c-0.087,0.08-0.12,0.223-0.179,0.336c-0.301,0.3-0.643,0.568-0.892,0.904
			c-0.826,1.109-1.515,2.307-1.976,3.61c-0.551,1.554-1.015,3.143-1.51,4.717c-0.058,0.185-0.074,0.379-0.112,0.571
			c-0.213,0.947-0.438,1.892-0.636,2.842c-0.215,1.027-0.405,2.059-0.622,3.165c-0.289-0.316-0.562-0.594-0.809-0.887
			c-0.517-0.624-1.053-1.233-1.519-1.896c-0.621-0.887-1.199-1.803-1.762-2.729c-0.478-0.784-0.943-1.58-1.348-2.401
			c-0.453-0.92-0.848-1.865-1.234-2.812c-0.276-0.68-0.507-1.38-0.737-2.077c-0.605-1.828-1.059-3.71-1.218-5.619
			c-0.17-2.067-0.171-4.152-0.133-6.233c0.033-1.844,0.493-3.635,0.928-5.428c0.424-1.754,1.046-3.443,1.771-5.086
			c0.673-1.524,1.437-3.01,2.409-4.372c0.933-1.311,1.861-2.628,2.84-3.907c0.508-0.656,1.114-1.243,1.689-1.85
			c0.612-0.641,1.243-1.263,1.858-1.901C130.361,61.692,130.505,61.489,130.662,61.297z"/>
		<path fill-rule="evenodd" clip-rule="evenodd" fill="#FFFFFF" d="M157.243,102.8c0.283,0.33,0.657,0.622,0.834,1.003
			c0.498,1.068,0.917,2.176,1.364,3.269c0.178,0.435,0.374,0.868,0.505,1.319c0.165,0.564,0.072,1.128-0.378,1.521
			c-0.786,0.69-1.599,0.091-1.881-0.564c-0.245-0.563-0.472-1.138-0.718-1.7c-0.275-0.625-0.561-1.244-0.854-1.858
			c-0.057-0.126-0.145-0.259-0.255-0.332c-1.187-0.787-2.384-1.568-3.577-2.345c-0.055-0.036-0.111-0.098-0.169-0.1
			c-0.157-0.007-0.316,0.013-0.475,0.022c0.041,0.162,0.03,0.375,0.131,0.483c0.211,0.228,0.476,0.407,0.731,0.593
			c0.802,0.583,1.597,1.183,2.427,1.729c0.669,0.443,0.843,1.164,1.132,1.823c0.309,0.709,0.582,1.432,0.87,2.151
			c0.171,0.427,0.364,0.845,0.499,1.284c0.205,0.662-0.04,1.146-0.518,1.379c-0.671,0.323-1.445-0.005-1.743-0.674
			c-0.451-1.021-0.91-2.034-1.332-3.066c-0.193-0.478-0.651-0.596-1.01-0.818c-0.814-0.497-1.67-0.924-2.516-1.369
			c-0.127-0.069-0.299-0.118-0.432-0.088c-0.073,0.019-0.158,0.222-0.143,0.325c0.014,0.108,0.125,0.23,0.227,0.294
			c0.711,0.444,1.437,0.871,2.15,1.314c0.41,0.255,0.848,0.446,1.077,0.954c0.398,0.881,0.882,1.724,1.331,2.58
			c0.084,0.164,0.153,0.34,0.259,0.488c0.558,0.771,0.125,1.171-0.447,1.54c-0.445,0.288-1.112,0.153-1.417-0.276
			c-0.528-0.746-0.99-1.533-1.526-2.273c-0.222-0.306-0.528-0.578-0.854-0.775c-0.622-0.379-1.287-0.693-1.936-1.033
			c-0.089-0.049-0.186-0.078-0.321-0.134c0.028,0.435,0.024,0.831,0.083,1.217c0.123,0.814-0.064,1.534-0.453,2.261
			c-0.626,1.181-1.16,2.408-1.741,3.614c-0.094,0.196-0.216,0.382-0.369,0.648c-0.026-0.167-0.047-0.26-0.051-0.354
			c-0.107-2.726-0.243-5.448-0.296-8.173c-0.015-0.858,0.137-1.731,0.324-2.572c0.136-0.611,0.626-1.007,1.218-1.24
			c0.085-0.033,0.169-0.064,0.247-0.097c0.219-1.887,0.636-2.521,1.764-2.694c0.099-0.407,0.208-0.809,0.289-1.221
			c0.14-0.707,0.522-1.26,1.119-1.633c0.252-0.158,0.59-0.182,0.941-0.28c0.205-0.64,0.634-1.217,1.134-1.754
			c0.704-0.76,1.998-0.996,2.862-0.411c0.975,0.657,1.89,1.406,2.832,2.113c0.512,0.384,1.003,0.804,1.547,1.135
			c0.496,0.301,0.731,0.776,1.002,1.231c0.492,0.835,0.97,1.678,1.432,2.53c0.369,0.678,0.568,1.388,0.181,2.145
			c-0.283,0.549-1.215,0.699-1.614,0.21c-0.372-0.449-0.701-0.941-1.012-1.438c-0.389-0.621-0.707-1.287-1.134-1.88
			c-0.173-0.235-0.375-0.609-0.806-0.536c-0.193-0.183-0.371-0.386-0.581-0.548c-0.381-0.294-0.783-0.563-1.179-0.84
			c-0.686-0.48-1.367-0.966-2.064-1.425c-0.11-0.072-0.303-0.02-0.457-0.025c0.056,0.186,0.056,0.431,0.179,0.551
			c0.282,0.284,0.626,0.504,0.945,0.751C155.497,101.433,156.368,102.117,157.243,102.8z M156.727,110.297
			c-0.153-0.193-0.388-0.295-0.646-0.186c-0.333,0.143-0.433,0.439-0.401,0.808C156.035,110.708,156.363,110.513,156.727,110.297z
			 M159.285,107.915c-0.313-0.168-0.62-0.278-0.87-0.048c-0.154,0.14-0.194,0.401-0.284,0.605c0.034,0.019,0.067,0.036,0.101,0.051
			C158.568,108.33,158.903,108.137,159.285,107.915z M152.98,112.649c0.032,0.017,0.063,0.033,0.094,0.052
			c0.342-0.192,0.683-0.381,1.022-0.569c-0.007-0.047-0.013-0.095-0.019-0.142c-0.279,0.022-0.587-0.021-0.824,0.093
			C153.106,112.151,153.068,112.453,152.98,112.649z M160.672,104.736c0.041,0.021,0.083,0.047,0.125,0.072
			c0.301-0.227,0.604-0.449,0.905-0.675c-0.004-0.037-0.01-0.077-0.015-0.118c-0.243,0.023-0.541-0.039-0.716,0.081
			C160.805,104.21,160.766,104.512,160.672,104.736z"/>
		<path fill-rule="evenodd" clip-rule="evenodd" fill="#FFFFFF" d="M150.972,68.224c0.817-0.267,1.726-0.497,2.576-0.863
			c0.589-0.253,1.104-0.688,1.634-1.067c0.105-0.077,0.195-0.271,0.184-0.402c-0.136-1.616-0.323-3.233-1.006-4.72
			c-0.383-0.839-0.844-1.681-1.452-2.361c-0.866-0.961-1.966-1.657-3.329-1.748c-0.585-0.037-1.175-0.007-1.783-0.097
			c0.259-0.1,0.511-0.23,0.78-0.292c1.539-0.359,3.079-0.477,4.655-0.188c1.156,0.215,2.242,0.604,3.223,1.21
			c1.164,0.723,2.195,1.626,2.871,2.857c0.315,0.574,0.667,1.146,0.864,1.765c0.313,0.982,0.494,2.007,0.387,3.057
			c-1.736,0.185-3.381,0.536-4.694,1.8c0.727-0.152,1.451-0.32,2.181-0.453c0.504-0.094,1.014-0.173,1.522-0.189
			c0.281-0.01,0.568,0.113,0.852,0.18c-0.006,0.044-0.011,0.091-0.016,0.137c-0.342,0.025-0.687,0.059-1.03,0.082
			c-1.17,0.085-1.61,0.526-1.683,1.702c-0.014,0.223-0.024,0.388-0.329,0.425c-1.071,0.128-2.136,0.309-3.208,0.437
			c-1.802,0.213-3.609,0.4-5.413,0.604c-1.229,0.14-2.458,0.304-3.688,0.417c-0.852,0.081-1.708,0.109-2.565,0.128
			c-0.492,0.01-0.799-0.274-0.775-0.643c0.024-0.384,0.42-0.674,0.873-0.643c1.265,0.092,2.491-0.098,3.703-0.45
			c0.592-0.174,1.196-0.303,1.819-0.46c-0.303-0.737-0.642-1.47-1.231-2.056c-0.258-0.257-0.473-0.56-0.753-0.79
			c-0.191-0.152-0.454-0.284-0.695-0.301c-0.833-0.059-1.656,0.007-2.438,0.353c-0.14,0.062-0.291,0.104-0.568,0.203
			c0.119-0.879,0.156-1.694,0.35-2.472c0.242-0.962,0.538-1.93,0.953-2.826c0.472-1.033,1.213-1.882,2.127-2.591
			c0.599-0.468,1.209-0.594,1.939-0.519c1.262,0.128,2.432,0.504,3.42,1.285c0.916,0.72,1.581,1.635,1.869,2.819
			c0.338,1.388,0.184,2.703-0.46,3.938C152.145,66.438,151.528,67.318,150.972,68.224z"/>
		<path fill-rule="evenodd" clip-rule="evenodd" fill="#FFFFFF" d="M180.654,65.586c-0.5,0.296-0.948,0.561-1.395,0.823
			c-0.123,0.073-0.245,0.153-0.374,0.209c-0.333,0.143-0.667,0.271-1.002,0.411c-0.36,0.145-0.747,0.251-1.079,0.446
			c-0.933,0.555-1.843,1.145-2.797,1.743c2.045,1.964,3.898,4.031,4.282,7.074c-5.074-1.441-10.141-1.467-15.311-0.491
			c-0.029-0.89-0.062-1.725-0.072-2.562c-0.002-0.077,0.131-0.181,0.224-0.229c0.559-0.284,1.124-0.555,1.789-0.88
			c-0.967-0.213-1.829-0.4-2.719-0.599c0.211-0.916,1.047-1.751,0.34-2.837c0.245-0.016,0.433-0.027,0.621-0.041
			c0.799-0.052,1.611-0.036,2.393-0.179c0.618-0.112,1.2-0.402,1.664-0.894c0.389-0.411,0.437-0.918,0.513-1.418
			c0.08-0.529,0.104-1.072,0.132-1.611c0.014-0.256,0.097-0.38,0.369-0.385c0.446-0.009,0.892-0.045,1.416-0.078
			c-0.203,1.469,0.088,2.797,1.241,3.785c0.611,0.524,1.057,0.635,1.691,0.65c-0.345-0.318-0.72-0.634-1.061-0.986
			c-0.487-0.499-0.808-1.112-0.872-1.806c-0.052-0.547-0.069-1.119,0.045-1.648c0.059-0.267,0.412-0.503,0.68-0.69
			c0.759-0.535,1.542-1.039,2.317-1.553c0.258-0.168,0.525-0.331,0.847-0.529c0.001,1.788,0.431,3.393,1.889,4.518
			c0.404,0.311,0.939,0.454,1.416,0.671c0.023-0.039,0.047-0.082,0.071-0.125c-0.26-0.283-0.537-0.556-0.773-0.861
			c-0.311-0.403-0.62-0.81-0.873-1.247c-0.815-1.402-0.857-2.896-0.428-4.427c0.022-0.084,0.061-0.189,0.127-0.233
			c0.444-0.314,0.897-0.618,1.399-0.961c0,0.266-0.008,0.465,0.001,0.666c0.039,0.864-0.035,1.752,0.152,2.583
			c0.297,1.323,1.101,2.364,2.254,3.109C180.043,65.178,180.312,65.359,180.654,65.586z"/>
		<path fill-rule="evenodd" clip-rule="evenodd" fill="#FFFFFF" d="M187.032,73.19c-0.091-0.029-0.181-0.076-0.274-0.079
			c-0.355-0.016-0.712-0.014-1.067-0.016c-0.965-0.009-1.51-0.788-1.21-1.714c0.081-0.252,0.204-0.359,0.478-0.352
			c1.172,0.029,2.344,0.038,3.514,0.054c0.08,0.003,0.17,0.029,0.235,0c0.105-0.042,0.194-0.127,0.291-0.193
			c-0.085-0.081-0.163-0.222-0.256-0.233c-1.305-0.168-2.609-0.331-3.918-0.456c-0.174-0.018-0.385,0.125-0.55,0.237
			c-0.593,0.404-1.17,0.831-1.76,1.244c-0.604,0.422-0.952,0.273-1.351-0.161c-0.308-0.335-0.22-1.071,0.178-1.401
			c0.671-0.561,1.377-1.082,2.067-1.623c0.011-0.007,0.028-0.01,0.036-0.018c0.419-0.61,1.004-0.468,1.594-0.371
			c1.299,0.214,2.598,0.402,3.895,0.614c0.591,0.093,1.159,0.246,1.544,0.766c0.03,0.045,0.138,0.031,0.209,0.045
			c0.06,0.249,0.102,0.506,0.186,0.749c0.043,0.131,0.148,0.24,0.242,0.346c0.266,0.298,0.566,0.569,0.805,0.886
			c0.527,0.697,0.279,1.671,0.957,2.388c0.477,0.505,0.433,1.351,0.235,2.084c-0.042,0.153-0.047,0.353,0.019,0.486
			c0.4,0.81,0.346,1.627,0.112,2.461c-0.249,0.884-0.501,1.767-0.73,2.656c-0.43,1.664-0.838,3.334-1.263,4.997
			c-0.267,1.044-0.539,2.086-0.819,3.126c-0.185,0.689-0.166,1.513-1.083,1.752c-0.615,0.107-1.23,0.215-1.846,0.308
			c-0.113,0.019-0.238-0.008-0.351-0.035c-0.622-0.15-0.673-0.272-0.554-0.9c0.236-1.255,0.446-2.51,0.667-3.767
			c0.039-0.22,0.075-0.439,0.125-0.66c0.138-0.621,0.244-1.196-0.012-1.86c-0.319-0.833-0.067-1.718,0.209-2.551
			c0.214-0.647,0.441-1.293,0.692-1.925c0.049-0.123,0.222-0.212,0.355-0.282c0.373-0.2,0.754-0.385,1.132-0.572
			c-0.014-0.055-0.028-0.111-0.043-0.168c-1.14-0.05-2.28-0.1-3.432-0.148c-0.08,0.326-0.065,0.519,0.288,0.663
			c0.386,0.162,0.7,0.461,0.688,0.962c-0.012,0.531-0.288,0.916-0.677,1.229c-0.054,0.045-0.239,0.012-0.293-0.048
			c-0.545-0.616-1.08-1.246-1.61-1.88c-0.082-0.097-0.167-0.229-0.17-0.348c-0.021-0.86-0.009-1.724,0.546-2.45
			c0.086-0.114,0.278-0.189,0.431-0.209c1.357-0.175,2.716-0.328,4.071-0.504c0.118-0.016,0.299-0.147,0.312-0.24
			c0.03-0.235-0.147-0.293-0.363-0.283c-1.275,0.063-2.553,0.115-3.829,0.176c-0.487,0.022-0.749-0.1-0.902-0.566
			c-0.101-0.312-0.135-0.675-0.101-1.002c0.033-0.329,0.3-0.49,0.647-0.52c0.388-0.034,0.773-0.106,1.162-0.161
			c0.107,0.021,0.217,0.063,0.323,0.058c0.838-0.041,1.675-0.08,2.511-0.149c0.147-0.012,0.285-0.162,0.426-0.247
			c-0.14-0.088-0.276-0.245-0.419-0.251c-0.68-0.031-1.362-0.02-2.044-0.017C187.203,73.114,187.118,73.163,187.032,73.19z
			 M182.127,70.036c-0.02,0.028-0.04,0.062-0.061,0.093c0.143,0.239,0.286,0.479,0.429,0.718c0.106-0.213,0.188-0.45,0.117-0.622
			C182.567,70.114,182.296,70.095,182.127,70.036z"/>
		<path fill-rule="evenodd" clip-rule="evenodd" fill="#FFFFFF" d="M156.487,75.755c-0.121,0.214-0.276,0.412-0.352,0.641
			c-0.227,0.685,0.078,1.224,0.78,1.416c0.241,0.065,0.484,0.119,0.729,0.176c0.228,0.053,0.457,0.103,0.719,0.16
			c-0.072,0.365-0.137,0.694-0.212,1.054c-0.504-0.118-0.88,0.166-1.277,0.377c-0.414,0.22-0.82,0.456-1.222,0.778
			c0.261,0,0.521,0,0.783,0c0.257,0,0.514,0,0.884,0c-0.177,0.233-0.278,0.364-0.373,0.495c-0.127,0.176-0.292,0.335-0.365,0.531
			c-0.108,0.295-0.257,0.317-0.504,0.189c-0.096-0.054-0.208-0.07-0.367-0.027c0.107,0.143,0.187,0.328,0.328,0.417
			c0.328,0.207,0.33,0.47,0.283,0.81c-0.065,0.454-0.077,0.916-0.076,1.374c0.001,0.827-0.74,1.343-1.549,1.441
			c-0.464,0.058-0.907-0.01-1.334-0.239c-0.53-0.285-1.122-0.463-1.625-0.783c-0.97-0.624-1.875-1.31-2.551-2.301
			c-0.812-1.188-1.19-2.488-1.386-3.877c-1.006,0.175-1.431-0.048-2.042-1.053c-0.782-1.284-1.26-2.68-1.542-4.145
			c-0.054-0.282-0.069-0.584-0.026-0.865c0.029-0.201,0.143-0.475,0.297-0.548c0.153-0.066,0.474,0.014,0.599,0.146
			c0.588,0.609,1.138,1.258,1.691,1.9c0.169,0.197,0.296,0.433,0.458,0.636c0.154,0.191,0.826-0.002,0.923-0.256
			c0.187-0.488,0.379-0.969,0.55-1.462c0.027-0.079-0.039-0.188-0.058-0.283c-0.074-0.386-0.165-0.766-0.205-1.149
			c-0.008-0.087,0.165-0.268,0.26-0.271c1.262-0.069,2.524-0.11,3.881-0.16c-0.27,0.304-0.487,0.551-0.752,0.854
			c0.218,0,0.383,0.008,0.545-0.002c0.394-0.024,0.746,0.021,1.125,0.219c0.363,0.191,0.835,0.17,1.301,0.248
			c-0.032,0.285-0.063,0.572-0.098,0.872c0.471-0.052,1.006-0.417,1.93-1.293c0.364,0.404,0.728,0.807,1.167,1.291
			c-0.162-0.895-0.294-1.698-0.459-2.496c-0.058-0.278,0.011-0.396,0.277-0.409c0.158,0.408,0.318,0.804,0.461,1.205
			c0.191,0.54,0.554,0.896,1.065,1.143c0.126,0.058,0.246,0.239,0.272,0.383c0.114,0.62,0.183,1.25,0.288,1.872
			c0.049,0.282,0.154,0.554,0.224,0.835c0.217,0.854-0.118,1.247-0.996,1.213c-0.39-0.014-0.785-0.009-1.172,0.037
			C156.782,76.96,156.55,76.766,156.487,75.755z M151.901,81.848c0.038-0.014,0.076-0.024,0.113-0.038
			c-0.389-1.453-0.472-2.929-0.279-4.452c-1.026,0.312-1.724-0.027-2.222-0.869c0.205,0.846,0.455,1.637,1.321,2.035
			c0.085,0.04,0.155,0.171,0.177,0.271c0.124,0.578,0.193,1.17,0.353,1.736C151.49,80.983,151.717,81.41,151.901,81.848z
			 M145.556,74.438c0.216,0.285,0.412,0.544,0.62,0.821c-0.156,0.088-0.295,0.164-0.493,0.276c0.31,0.136,0.556,0.245,0.801,0.354
			c-0.266,0.56,0.207,1.116,0.766,1.325c0.032-0.644,0.072-1.289-0.355-1.85c-0.084-0.107-0.103-0.272-0.183-0.389
			c-0.344-0.503-0.688-1.01-1.062-1.494c-0.062-0.082-0.262-0.092-0.393-0.076c-0.042,0.004-0.095,0.193-0.09,0.297
			c0.014,0.375,0.049,0.748,0.083,1.198C145.376,74.713,145.458,74.587,145.556,74.438z M154.729,78.844
			c0.034,0.006,0.069,0.012,0.106,0.017c0.08-0.458,0.18-0.911,0.24-1.373c0.063-0.505,0.231-0.935,0.661-1.241
			c0.12-0.083,0.22-0.193,0.328-0.293c-0.417,0.095-0.794,0.237-1.155,0.41c-0.083,0.039-0.133,0.185-0.164,0.29
			C154.53,77.383,154.604,78.114,154.729,78.844z"/>
		<path fill-rule="evenodd" clip-rule="evenodd" fill="#FFFFFF" d="M157.712,84.454c0-1.134-0.039-2.149,0.024-3.158
			c0.018-0.275,0.292-0.583,0.526-0.789c0.488-0.43,1.002-0.844,1.551-1.189c1.933-1.217,4.086-1.819,6.319-2.194
			c3.135-0.523,6.264-0.538,9.381,0.126c0.912,0.192,1.848,0.332,2.717,0.643c0.982,0.351,1.928,0.823,2.842,1.33
			c0.611,0.338,1.154,0.808,1.697,1.257c0.187,0.153,0.387,0.419,0.396,0.64c0.044,0.968,0.019,1.942,0.019,2.914
			c-0.033,0.016-0.063,0.033-0.097,0.05c-0.22-0.204-0.428-0.427-0.663-0.616c-0.815-0.653-1.694-1.201-2.663-1.617
			c-1.232-0.531-2.492-0.954-3.806-1.226c-2.504-0.511-5.029-0.716-7.576-0.466c-1.492,0.145-2.993,0.271-4.425,0.765
			c-1.063,0.367-2.15,0.688-3.17,1.15c-1.101,0.502-2.09,1.205-2.868,2.165C157.881,84.282,157.835,84.324,157.712,84.454z"/>
		<path fill-rule="evenodd" clip-rule="evenodd" fill="#FFFFFF" d="M182.866,92.542c-0.694-0.538-1.316-1.116-2.033-1.534
			c-0.836-0.481-1.732-0.888-2.646-1.203c-1.506-0.52-3.069-0.851-4.657-0.98c-2.48-0.206-4.956-0.203-7.423,0.269
			c-1.454,0.278-2.864,0.676-4.209,1.265c-0.778,0.34-1.495,0.835-2.197,1.321c-0.449,0.309-0.819,0.728-1.267,1.136
			c0-0.889,0.03-1.752-0.014-2.61c-0.021-0.391,0.137-0.692,0.349-0.928c0.354-0.393,0.758-0.771,1.211-1.035
			c0.855-0.501,1.741-0.966,2.651-1.354c1.31-0.56,2.7-0.883,4.109-1.07c3.02-0.403,6.043-0.467,9.032,0.213
			c1.299,0.296,2.596,0.675,3.832,1.164c1.145,0.447,2.205,1.11,3.035,2.055c0.125,0.145,0.211,0.368,0.216,0.558
			C182.878,90.723,182.866,91.641,182.866,92.542z"/>
		<path fill-rule="evenodd" clip-rule="evenodd" fill="#FFFFFF" d="M188.528,103.201c-2.518-0.481-4.151,0.562-4.864,2.625
			c-0.363-0.505-0.713-0.987-1.059-1.471c-0.653-0.913-1.312-1.825-1.955-2.747c-0.786-1.125-1.51-2.298-2.357-3.374
			c-0.671-0.854-0.495-1.607-0.01-2.415c0.718-1.194,1.782-1.812,3.166-1.844c0.511-0.015,0.93,0.146,1.223,0.677
			c0.371,0.673,0.89,1.263,1.329,1.898c0.559,0.807,1.096,1.627,1.65,2.438c0.487,0.714,0.989,1.416,1.478,2.129
			C187.584,101.786,188.03,102.459,188.528,103.201z M183.652,100.774c-0.33,0.009-0.52,0.238-0.515,0.548
			c0.003,0.338,0.236,0.418,0.492,0.432c0.337,0.021,0.508-0.176,0.495-0.503C184.111,100.92,183.896,100.814,183.652,100.774z
			 M182.245,98.636c-0.009-0.28-0.269-0.57-0.491-0.54c-0.296,0.043-0.464,0.236-0.482,0.534c-0.017,0.284,0.203,0.471,0.511,0.466
			C182.094,99.087,182.217,98.898,182.245,98.636z"/>
		<path fill-rule="evenodd" clip-rule="evenodd" fill="#FFFFFF" d="M180.771,122.167c0.915-4.38,1.168-8.785,1.673-13.228
			c2.216,3.337,4.382,6.602,6.583,9.917C186.364,120.189,183.663,121.313,180.771,122.167z"/>
		<path fill-rule="evenodd" clip-rule="evenodd" fill="#FFFFFF" d="M192.525,115.428c-1.079-1.526-2.131-3.014-3.18-4.503
			c-0.842-1.196-1.683-2.397-2.523-3.598c-0.44-0.63-0.447-1.513-0.012-2.168c0.285-0.424,0.726-0.537,1.195-0.587
			c0.028,0,0.054,0.003,0.081,0c0.91-0.126,1.308,0.497,1.72,1.142c0.479,0.751,1.005,1.474,1.5,2.214
			c0.534,0.792,1.05,1.596,1.583,2.391c0.506,0.749,1.025,1.486,1.529,2.237c0.232,0.348,0.446,0.703,0.701,1.107
			C194.352,114.36,193.506,114.959,192.525,115.428z"/>
		<path fill-rule="evenodd" clip-rule="evenodd" fill="#FFFFFF" d="M163.881,91.884c0.728-0.606,1.479-1.035,2.301-1.344
			c1.464-0.547,2.975-0.81,4.542-0.822c2.39-0.018,4.702,0.424,7.044,1.012c0,0.658,0,1.286,0,1.957
			c-0.263,0.024-0.559,0.069-0.855,0.087c-2.207,0.135-4.413,0.301-6.623,0.372c-0.668,0.023-0.945,0.326-1.177,0.853
			c-0.463,1.056-0.956,2.095-1.434,3.145c-0.07,0.151-0.126,0.31-0.253,0.448c0.078-0.457,0.145-0.915,0.234-1.371
			c0.189-0.952,0.385-1.905,0.586-2.854c0.098-0.447-0.067-0.772-0.468-0.961c-1.155-0.547-2.364-0.661-3.614-0.509
			C164.094,91.906,164.02,91.892,163.881,91.884z"/>
		<path fill-rule="evenodd" clip-rule="evenodd" fill="#4A3D2D" d="M189.348,91.463c0.917-0.239,0.898-1.062,1.083-1.752
			c0.28-1.04,0.553-2.082,0.819-3.126c0.424-1.663,0.833-3.333,1.263-4.997c0.229-0.89,0.481-1.772,0.73-2.656
			c0.234-0.834,0.288-1.651-0.112-2.461c-0.065-0.134-0.061-0.333-0.019-0.486c0.198-0.733,0.241-1.579-0.235-2.084
			c-0.678-0.717-0.43-1.69-0.957-2.388c-0.239-0.316-0.539-0.588-0.805-0.886c-0.093-0.105-0.199-0.215-0.242-0.346
			c-0.084-0.243-0.126-0.5-0.186-0.749c0.18-0.184,0.362-0.365,0.543-0.546c0.296,0.076,0.585,0.515,0.532,0.911
			c-0.034,0.251,0.035,0.399,0.233,0.52c0.806,0.491,1.037,1.25,0.98,2.127c-0.019,0.298,0.057,0.456,0.31,0.669
			c0.299,0.251,0.536,0.675,0.615,1.06c0.106,0.516,0.027,1.067,0.042,1.605c0.008,0.253-0.019,0.536,0.085,0.753
			c0.374,0.768,0.391,1.56,0.189,2.35c-0.329,1.299-0.725,2.58-1.071,3.874c-0.314,1.179-0.603,2.365-0.904,3.55
			c-0.182,0.726-0.365,1.448-0.556,2.203c0.618,0.158,1.058,0.495,1.428,0.956c0.455,0.563,0.616,1.233,0.796,1.905
			c0.26,0.972,0.546,1.942,0.817,2.912c0.028,0.099,0.041,0.196,0.061,0.299c-0.315,0.313-0.628,0.63-0.943,0.943
			c-0.106-0.186-0.242-0.363-0.314-0.564c-0.29-0.8-0.56-1.605-0.836-2.409c-0.14,0.344-0.194,0.701-0.279,1.048
			c-0.051,0.202-0.153,0.394-0.232,0.591c-0.438-0.45-0.869-0.906-1.314-1.349C190.37,92.441,189.856,91.956,189.348,91.463z"/>
		<path fill-rule="evenodd" clip-rule="evenodd" fill="#FFFFFF" d="M157.688,114.178c-0.326,0.692-0.608,1.28-0.883,1.871
			c-0.402,0.875-0.794,1.755-1.199,2.629c-0.421,0.901-0.857,1.798-1.281,2.7c-0.122,0.261-0.235,0.528-0.34,0.797
			c-0.108,0.273-0.25,0.421-0.591,0.346c-1.126-0.253-2.258-0.478-3.387-0.721c-0.124-0.025-0.24-0.094-0.406-0.163
			c0.319-0.614,0.619-1.204,0.929-1.787c0.478-0.891,0.963-1.773,1.444-2.663c0.25-0.46,0.487-0.927,0.754-1.375
			c0.055-0.095,0.228-0.191,0.333-0.177c1.245,0.17,2.126-0.392,2.815-1.359c0.099-0.138,0.179-0.313,0.4-0.174
			C156.693,114.36,157.134,114.393,157.688,114.178z"/>
		<path fill-rule="evenodd" clip-rule="evenodd" fill="#FFFFFF" d="M192.185,94.289c0.079-0.197,0.181-0.389,0.232-0.591
			c0.085-0.347,0.14-0.704,0.279-1.048c0.277,0.804,0.546,1.609,0.836,2.409c0.073,0.201,0.208,0.379,0.314,0.564
			c0.078,0.186,0.156,0.371,0.233,0.559c-0.008,0.05-0.04,0.119-0.018,0.154c0.654,1.084,1.31,2.17,1.974,3.251
			c0.668,1.093,1.412,2.147,2.001,3.279c0.894,1.719,1.126,3.573,0.84,5.488c-0.089,0.601-0.189,1.196-0.292,1.792
			c-0.019,0.113-0.064,0.221-0.17,0.33c-0.098-0.656-0.163-1.318-0.296-1.966c-0.211-1.03-0.391-2.073-0.722-3.065
			c-0.458-1.376-0.969-2.746-1.595-4.052c-0.54-1.129-1.257-2.174-1.926-3.235c-0.234-0.373-0.564-0.684-0.879-1.056
			c-0.992,1.045-2.203,1.262-3.518,0.896c-0.607-0.17-1.212-0.42-1.73-0.799c0.017-0.043,0.034-0.088,0.05-0.133
			c0.158,0.036,0.314,0.078,0.471,0.117c0.634,0.149,1.267,0.237,1.909,0.042c0.872-0.268,1.34-0.934,1.664-1.713
			C192.006,95.125,192.074,94.701,192.185,94.289z"/>
		<path fill-rule="evenodd" clip-rule="evenodd" fill="#4A3D2D" d="M128.712,103.059c0.038-0.192,0.054-0.387,0.112-0.571
			c0.495-1.574,0.959-3.163,1.51-4.717c0.461-1.304,1.15-2.501,1.976-3.61c0.249-0.336,0.591-0.604,0.892-0.904
			c0.643,0.637,1.287,1.273,1.931,1.912c0.168,0.165,0.336,0.336,0.511,0.492c0.192,0.174,0.22,0.312,0.013,0.521
			c-1.212,1.205-2.408,2.427-3.613,3.643c-1.01,1.015-2.027,2.026-3.042,3.035C128.918,102.94,128.809,102.993,128.712,103.059z"/>
		<path fill-rule="evenodd" clip-rule="evenodd" fill="#FFFFFF" d="M170.597,103.632c0-0.813,0-1.624,0-2.437
			c0-0.089,0.012-0.179,0.004-0.271c-0.036-0.433,0.166-0.634,0.657-0.617c0.139,0.88,0.282,1.78,0.44,2.788
			c0.112-0.82,0.212-1.546,0.311-2.271c0.01-0.079,0.015-0.158,0.025-0.233c0.075-0.546,0.075-0.546,0.702-0.502
			c0.154,0.949,0.31,1.914,0.481,2.971c0.127-0.965,0.24-1.832,0.369-2.698c0.017-0.105,0.135-0.197,0.207-0.301
			c0.089,0.106,0.238,0.203,0.255,0.314c0.131,0.914,0.234,1.833,0.349,2.744c0.005,0.039,0.016,0.075,0.088,0.121
			c0.122-0.984,0.245-1.966,0.368-2.969c0.363-0.064,0.387,0.183,0.417,0.438c0.108,0.902,0.223,1.803,0.337,2.705
			c0.008,0.073,0.037,0.143,0.112,0.213c0.089-0.946,0.178-1.892,0.267-2.849c0.537,0.182,0.736,0.433,0.712,0.903
			c-0.05,0.988-0.11,1.972-0.168,2.957c-0.002,0.051-0.026,0.099-0.062,0.217c-1.176-0.497-2.395-0.736-3.651-0.75
			c-1.26-0.016-2.479,0.195-3.714,0.788c0-0.271,0-0.418,0.001-0.571c0.004-0.854,0.01-1.712,0.012-2.57
			c0.004-0.754,0.028-0.785,0.819-1.076c0.172,0.991,0.341,1.979,0.51,2.96C170.494,103.637,170.546,103.634,170.597,103.632z"/>
		<path fill-rule="evenodd" clip-rule="evenodd" fill="#FFFFFF" d="M163.943,101.042c-0.621-1.139-1.301-2.093-2.713-2.228
			c0.259-0.528,0.493-1.003,0.728-1.477c0.526-1.055,1.054-2.107,1.583-3.16c0.122-0.244,0.234-0.496,0.38-0.728
			c0.052-0.084,0.182-0.135,0.285-0.172c0.724-0.243,1.436-0.021,2.149,0.077c0.797,0.106,0.799,0.156,0.474,0.902
			c-0.502,1.152-0.969,2.323-1.46,3.479C164.909,98.82,164.437,99.898,163.943,101.042z"/>
		<path fill-rule="evenodd" clip-rule="evenodd" fill="#FFFFFF" d="M150.457,111.835c0.407,0.624,0.785,1.131,1.075,1.685
			c0.071,0.14-0.106,0.433-0.219,0.63c-0.623,1.078-1.264,2.144-1.887,3.22c-0.621,1.074-1.229,2.155-1.856,3.257
			c-0.431-0.245-0.84-0.467-1.231-0.718c-0.062-0.04-0.095-0.237-0.052-0.317c0.424-0.812,0.871-1.609,1.303-2.421
			c0.419-0.782,0.826-1.569,1.24-2.356c0.188-0.356,0.372-0.716,0.568-1.071C149.722,113.151,150.055,112.561,150.457,111.835z"/>
		<path fill-rule="evenodd" clip-rule="evenodd" fill="#FFFFFF" d="M169.839,106.368c0.364,0.064,0.521,0.165,0.471,0.553
			c-0.411,3.156-0.804,6.316-1.188,9.475c-0.254,2.09-0.488,4.176-0.729,6.266c-0.005,0.039-0.009,0.075-0.015,0.119
			c-0.124,0.771-0.135,0.778-1.017,0.634C168.187,117.747,169.01,112.076,169.839,106.368z"/>
		<path fill-rule="evenodd" clip-rule="evenodd" fill="#FFFFFF" d="M168.515,84.877c0-0.347-0.024-0.639,0.011-0.921
			c0.016-0.131,0.124-0.3,0.237-0.363c0.833-0.458,1.701-0.823,2.651-0.957c1.384-0.19,2.587,0.279,3.71,1.023
			c0.069,0.044,0.151,0.135,0.153,0.207c0.016,0.404,0.007,0.811,0.007,1.31C173.061,84.61,170.828,84.394,168.515,84.877z"/>
		<path fill-rule="evenodd" clip-rule="evenodd" fill="#FFFFFF" d="M148.381,82.624c1.354,2.987,3.257,5.467,5.302,7.909
			c-0.466-0.106-0.956-0.155-1.394-0.331c-1.171-0.471-2.083-1.3-2.999-2.162c-0.708-0.669-0.675-1.459-0.741-2.27
			c-0.077-0.955-0.137-1.914-0.2-2.87C148.345,82.851,148.36,82.799,148.381,82.624z"/>
		<path fill-rule="evenodd" clip-rule="evenodd" fill="#FFFFFF" d="M143.862,117.907c-0.241-0.502-0.481-1.004-0.721-1.507
			c-0.01-0.021-0.017-0.047-0.026-0.074c-0.328-0.948-0.363-0.968-1.351-0.922c-2.498,0.118-4.962-0.109-7.387-0.737
			c-0.197-0.054-0.397-0.095-0.592-0.173c3.573,0.145,7.118,0.066,10.619-1.031C144.106,114.971,143.781,116.403,143.862,117.907z"
			/>
		<path fill-rule="evenodd" clip-rule="evenodd" fill="#FFFFFF" d="M181.345,77.815c-0.471-0.204-0.917-0.38-1.345-0.591
			c-0.084-0.04-0.134-0.218-0.142-0.336c-0.144-2.034-0.304-4.065-0.398-6.103c-0.024-0.535-0.347-0.855-0.579-1.247
			c-0.223-0.377-0.488-0.73-0.684-1.164c0.577,0.344,1.159,0.675,1.725,1.034c0.103,0.067,0.165,0.236,0.195,0.369
			c0.209,0.96,0.447,1.918,0.598,2.891c0.252,1.648,0.445,3.305,0.663,4.958C181.384,77.664,181.368,77.702,181.345,77.815z"/>
		<path fill-rule="evenodd" clip-rule="evenodd" fill="#FFFFFF" d="M190.625,116.372c-0.241,0.258-0.479,0.517-0.771,0.832
			c-1.758-2.949-3.488-5.854-5.218-8.756c0.03-0.039,0.06-0.075,0.089-0.115c0.517,0.348,1.168,0.591,1.525,1.059
			c0.761,0.995,1.369,2.104,2.037,3.168c0.64,1.024,1.281,2.046,1.917,3.069C190.342,115.85,190.463,116.083,190.625,116.372z"/>
		<path fill-rule="evenodd" clip-rule="evenodd" fill="#FFFFFF" d="M146.342,68.879c-1.229-0.066-2.46-0.126-3.69-0.207
			c-0.076-0.004-0.202-0.166-0.203-0.255c-0.008-0.75-0.002-1.499,0.031-2.248c0.003-0.093,0.18-0.252,0.28-0.252
			c0.723-0.016,1.446,0,2.168,0.017c0.085,0.002,0.214,0.062,0.247,0.133c0.416,0.887,0.818,1.774,1.224,2.663
			C146.38,68.78,146.362,68.827,146.342,68.879z"/>
		<path fill-rule="evenodd" clip-rule="evenodd" fill="#FFFFFF" d="M164.897,65.024c-0.136,0.533-0.246,1.058-0.411,1.562
			c-0.054,0.163-0.263,0.398-0.39,0.392c-0.231-0.012-0.564-0.125-0.655-0.302c-0.267-0.515-0.496-1.07-0.632-1.634
			c-0.204-0.849-0.229-1.729,0.056-2.571c0.085-0.251,0.304-0.477,0.517-0.643c0.072-0.058,0.363,0.058,0.467,0.174
			c0.199,0.217,0.404,0.474,0.487,0.75C164.555,63.488,164.709,64.25,164.897,65.024z"/>
		<path fill-rule="evenodd" clip-rule="evenodd" fill="#FFFFFF" d="M180.811,58.038c0.379-0.677,1.152-0.923,1.822-0.691
			c1.507,0.516,2.189,2.753,1.687,4.005c-0.239,0.599-0.56,1.059-1.32,1.314c0.563-1.03,0.553-2.01,0.136-2.985
			C182.708,58.677,182.022,58.014,180.811,58.038z"/>
		<path fill-rule="evenodd" clip-rule="evenodd" fill="#FFFFFF" d="M146.639,88.638c0.376,0.688,0.753,1.37,1.13,2.059
			c0.486,0.885,0.971,1.771,1.456,2.652c0.006,0.014,0.017,0.021,0.024,0.031c0.351,0.549,0.375,0.558,0.989,0.35
			c0.849-0.292,0.844-0.288,1.267,0.51c0.192,0.368,0.41,0.717,0.616,1.075c-0.025,0.019-0.051,0.036-0.078,0.06
			c-0.332-0.216-0.657-0.443-1.001-0.636c-0.154-0.09-0.352-0.153-0.523-0.143c-0.522,0.036-1.05,0.091-1.567,0.181
			c-0.288,0.052-0.402-0.056-0.482-0.301c-0.211-0.649-0.438-1.295-0.651-1.94c-0.301-0.909-0.599-1.818-0.894-2.729
			c-0.124-0.384-0.236-0.768-0.355-1.15C146.593,88.65,146.616,88.645,146.639,88.638z"/>
		<path fill-rule="evenodd" clip-rule="evenodd" fill="#FFFFFF" d="M185.41,63.892c-0.393,0.437-0.936,0.522-1.468,0.584
			c-1.407,0.166-2.563-0.342-3.513-1.375c-1.314-1.42-1.767-3.11-1.452-4.984c0.185-1.109,0.722-2.066,1.666-2.74
			c-0.296,0.508-0.624,0.998-0.877,1.524c-0.433,0.898-0.409,1.869-0.286,2.826c0.193,1.499,0.885,2.735,2.12,3.634
			c1.127,0.824,2.345,1.074,3.675,0.544c0.036-0.013,0.074-0.021,0.112-0.032C185.393,63.873,185.402,63.886,185.41,63.892z"/>
		<path fill-rule="evenodd" clip-rule="evenodd" fill="#FFFFFF" d="M160.304,70.237c-0.093,0.378-0.161,0.766-0.294,1.129
			c-0.052,0.146-0.251,0.321-0.389,0.327c-0.155,0.001-0.368-0.132-0.464-0.272c-0.706-1.019-0.676-2.152-0.441-3.293
			c0.035-0.168,0.301-0.409,0.448-0.4c0.191,0.009,0.448,0.198,0.539,0.377C160.038,68.761,160.26,69.467,160.304,70.237z"/>
		<path fill-rule="evenodd" clip-rule="evenodd" fill="#FFFFFF" d="M185.55,62.877c1.293-2.912-0.259-6.428-2.965-7.362
			c0.225-0.228,0.456-0.246,0.743-0.129c1.64,0.671,2.565,1.918,3.04,3.592c0.327,1.156,0.216,2.26-0.152,3.373
			C186.107,62.672,185.953,62.883,185.55,62.877z"/>
		<path fill-rule="evenodd" clip-rule="evenodd" d="M194.081,96.182c-0.078-0.188-0.156-0.373-0.233-0.559
			c0.314-0.313,0.628-0.63,0.943-0.943c0.243,0.479,0.479,0.965,0.731,1.44c0.425,0.807,0.862,1.605,1.29,2.409
			c0.114,0.212,0.216,0.437,0.324,0.655c-0.778-0.762-1.557-1.521-2.334-2.28C194.558,96.667,194.32,96.423,194.081,96.182z"/>
		<path fill-rule="evenodd" clip-rule="evenodd" d="M157.243,102.8c-0.875-0.684-1.747-1.367-2.621-2.049
			c-0.319-0.247-0.663-0.467-0.945-0.751c-0.123-0.12-0.123-0.365-0.179-0.551c0.153,0.006,0.346-0.047,0.457,0.025
			c0.697,0.459,1.378,0.944,2.064,1.425c0.396,0.276,0.797,0.546,1.179,0.84c0.21,0.162,0.388,0.365,0.581,0.548
			C157.599,102.459,157.419,102.629,157.243,102.8z"/>
		<path fill-rule="evenodd" clip-rule="evenodd" d="M187.032,73.19c0.086-0.027,0.171-0.076,0.256-0.076
			c0.683-0.003,1.365-0.015,2.044,0.017c0.143,0.006,0.279,0.163,0.419,0.251c-0.141,0.085-0.279,0.235-0.426,0.247
			c-0.836,0.069-1.673,0.108-2.511,0.149c-0.106,0.006-0.216-0.037-0.323-0.058C186.672,73.542,186.852,73.368,187.032,73.19z"/>
		<path fill-rule="evenodd" clip-rule="evenodd" fill="#FFFFFF" d="M183.519,74.321c-0.281-1.002,0.235-1.745,0.552-2.53
			C183.894,72.603,183.716,73.418,183.519,74.321z"/>
		<path fill-rule="evenodd" clip-rule="evenodd" fill="#FFFFFF" d="M184.197,74.811c-0.079,0.787-0.16,1.572-0.25,2.466
			C183.559,76.333,183.902,75.577,184.197,74.811z"/>
		<path fill-rule="evenodd" clip-rule="evenodd" fill="#FFFFFF" d="M166.288,62.42c-0.28,0.106-0.562,0.207-0.842,0.32
			c-0.401,0.154-0.464,0.107-0.44-0.379c0.424,0,0.849,0,1.276,0C166.285,62.381,166.286,62.401,166.288,62.42z"/>
		<path fill-rule="evenodd" clip-rule="evenodd" fill="#FFFFFF" d="M166.602,66.532c-0.43,0.087-0.859,0.176-1.334,0.272
			c0.023-0.197,0.039-0.335,0.059-0.5c0.437,0.05,0.859,0.098,1.283,0.146C166.606,66.477,166.604,66.501,166.602,66.532z"/>
		<path fill-rule="evenodd" clip-rule="evenodd" fill="#FFFFFF" d="M166.711,65.458c-0.399,0.087-0.8,0.174-1.249,0.271
			c-0.01-0.178-0.016-0.312-0.025-0.481c0.45,0.043,0.857,0.081,1.263,0.119C166.703,65.396,166.706,65.426,166.711,65.458z"/>
		<path fill-rule="evenodd" clip-rule="evenodd" fill="#FFFFFF" d="M165.352,63.76c-0.045-0.178-0.07-0.287-0.107-0.432
			c0.456,0,0.878,0,1.299,0c0.008,0.011,0.014,0.026,0.021,0.041C166.178,63.496,165.789,63.621,165.352,63.76z"/>
		<path fill-rule="evenodd" clip-rule="evenodd" fill="#FFFFFF" d="M166.759,64.456c-0.329,0.074-0.664,0.131-0.989,0.221
			c-0.315,0.091-0.417-0.024-0.372-0.374c0.448,0.026,0.901,0.048,1.353,0.074C166.753,64.4,166.757,64.429,166.759,64.456z"/>
		<path fill-rule="evenodd" clip-rule="evenodd" fill="#FFFFFF" d="M165.885,61.704c-0.369,0.065-0.736,0.158-1.107,0.183
			c-0.125,0.01-0.26-0.146-0.392-0.228c0.019-0.049,0.036-0.099,0.056-0.151c0.48,0.043,0.96,0.083,1.441,0.126
			C165.884,61.655,165.884,61.679,165.885,61.704z"/>
		<path fill-rule="evenodd" clip-rule="evenodd" fill="#FFFFFF" d="M161.619,71.35c-0.311,0.073-0.624,0.143-0.998,0.23
			c0.014-0.172,0.024-0.295,0.038-0.462c0.348,0.06,0.65,0.112,0.953,0.159C161.614,71.304,161.615,71.326,161.619,71.35z"/>
		<path fill-rule="evenodd" clip-rule="evenodd" fill="#FFFFFF" d="M160.427,68.512c-0.034-0.172-0.055-0.271-0.081-0.402
			c0.345-0.015,0.666-0.028,0.985-0.044c0.008,0.029,0.016,0.058,0.024,0.087C161.062,68.263,160.771,68.376,160.427,68.512z"/>
		<path fill-rule="evenodd" clip-rule="evenodd" fill="#FFFFFF" d="M161.135,67.474c-0.691,0.358-1.042,0.346-1.133,0
			C160.356,67.474,160.707,67.474,161.135,67.474z"/>
		<path fill-rule="evenodd" clip-rule="evenodd" fill="#FFFFFF" d="M160.712,69.572c0.366,0.034,0.691,0.062,1.016,0.09
			C160.744,69.985,160.744,69.985,160.712,69.572z"/>
		<path fill-rule="evenodd" clip-rule="evenodd" fill="#FFFFFF" d="M160.723,70.307c0.402,0.061,0.706,0.105,1.01,0.149
			c0,0.036,0,0.076,0.002,0.115c-0.319,0.018-0.639,0.038-0.957,0.045C160.763,70.617,160.747,70.444,160.723,70.307z"/>
		<path fill-rule="evenodd" clip-rule="evenodd" fill="#FFFFFF" d="M160.524,68.838c0.426,0,0.766,0,1.104,0
			c0.007,0.033,0.013,0.067,0.021,0.098c-0.319,0.062-0.637,0.131-0.958,0.175C160.659,69.115,160.606,68.978,160.524,68.838z"/>
		<path fill-rule="evenodd" clip-rule="evenodd" d="M156.727,110.297c-0.364,0.216-0.692,0.411-1.047,0.622
			c-0.032-0.368,0.067-0.665,0.401-0.808C156.339,110.002,156.574,110.104,156.727,110.297z"/>
		<path fill-rule="evenodd" clip-rule="evenodd" d="M159.285,107.915c-0.381,0.223-0.717,0.415-1.053,0.608
			c-0.034-0.015-0.067-0.032-0.101-0.051c0.09-0.204,0.13-0.466,0.284-0.605C158.665,107.636,158.971,107.747,159.285,107.915z"/>
		<path fill-rule="evenodd" clip-rule="evenodd" d="M152.98,112.649c0.088-0.196,0.126-0.498,0.274-0.566
			c0.236-0.114,0.545-0.07,0.824-0.093c0.006,0.047,0.012,0.095,0.019,0.142c-0.339,0.188-0.68,0.377-1.022,0.569
			C153.043,112.682,153.012,112.666,152.98,112.649z"/>
		<path fill-rule="evenodd" clip-rule="evenodd" d="M160.672,104.736c0.094-0.224,0.133-0.525,0.299-0.64
			c0.175-0.12,0.473-0.058,0.716-0.081c0.005,0.041,0.011,0.081,0.015,0.118c-0.301,0.226-0.604,0.448-0.905,0.675
			C160.755,104.783,160.713,104.756,160.672,104.736z"/>
		<path fill-rule="evenodd" clip-rule="evenodd" d="M182.127,70.036c0.169,0.06,0.44,0.078,0.485,0.188
			c0.072,0.172-0.01,0.409-0.117,0.622c-0.143-0.239-0.286-0.479-0.429-0.718C182.087,70.097,182.107,70.064,182.127,70.036z"/>
		<path fill-rule="evenodd" clip-rule="evenodd" d="M151.901,81.848c-0.184-0.438-0.411-0.865-0.539-1.316
			c-0.159-0.566-0.229-1.158-0.353-1.736c-0.021-0.101-0.091-0.231-0.177-0.271c-0.866-0.398-1.116-1.189-1.321-2.035
			c0.499,0.842,1.196,1.182,2.222,0.869c-0.193,1.523-0.109,2.999,0.279,4.452C151.977,81.824,151.939,81.834,151.901,81.848z"/>
		<path fill-rule="evenodd" clip-rule="evenodd" d="M145.556,74.438c-0.098,0.149-0.18,0.275-0.306,0.464
			c-0.034-0.45-0.07-0.823-0.083-1.198c-0.004-0.104,0.048-0.293,0.09-0.297c0.131-0.016,0.331-0.006,0.393,0.076
			c0.374,0.484,0.718,0.991,1.062,1.494c0.08,0.116,0.098,0.281,0.183,0.389c0.427,0.561,0.387,1.206,0.355,1.852
			c-0.559-0.211-1.032-0.768-0.766-1.327c-0.245-0.109-0.491-0.219-0.801-0.354c0.198-0.112,0.337-0.188,0.493-0.276
			C145.967,74.982,145.771,74.723,145.556,74.438z"/>
		<path fill-rule="evenodd" clip-rule="evenodd" d="M154.729,78.844c-0.125-0.73-0.199-1.461,0.016-2.19
			c0.031-0.105,0.081-0.251,0.164-0.29c0.361-0.173,0.738-0.315,1.155-0.41c-0.108,0.1-0.208,0.21-0.328,0.293
			c-0.43,0.307-0.598,0.736-0.661,1.241c-0.06,0.462-0.16,0.915-0.24,1.373C154.799,78.856,154.764,78.85,154.729,78.844z"/>
		<path fill-rule="evenodd" clip-rule="evenodd" d="M183.652,100.774c0.244,0.04,0.459,0.146,0.472,0.477
			c0.013,0.327-0.158,0.523-0.495,0.503c-0.256-0.014-0.488-0.094-0.492-0.432C183.132,101.012,183.322,100.783,183.652,100.774z"/>
		<path fill-rule="evenodd" clip-rule="evenodd" d="M182.245,98.636c-0.028,0.262-0.151,0.451-0.462,0.46
			c-0.309,0.005-0.528-0.182-0.511-0.466c0.018-0.298,0.186-0.491,0.482-0.534C181.977,98.066,182.236,98.356,182.245,98.636z"/>
	</g>
</g>
<g>
	<path fill="#93C156" d="M244.371,75.442V59.576h-2.403v-2.647h8.093v2.647h-2.495v6.054h9.203v-6.054h-2.479v-2.647h8.093v2.647
		h-2.419v15.866h2.419v2.646h-8.093v-2.646h2.479v-7.165h-9.203v7.165h2.495v2.646h-8.093v-2.646H244.371z"/>
	<path fill="#93C156" d="M264.74,67.41c0-3.073,1.004-5.644,3.012-7.713c2.008-2.068,4.625-3.103,7.85-3.103
		c3.255,0,5.907,1.034,7.956,3.103c2.049,2.069,3.073,4.66,3.073,7.773c0,3.175-1.042,5.794-3.126,7.858
		c-2.084,2.063-4.733,3.095-7.948,3.095c-2.048,0-3.932-0.489-5.651-1.468c-1.719-0.979-3.009-2.343-3.871-4.092
		C265.171,71.115,264.74,69.295,264.74,67.41z M268.224,67.424c0,2.322,0.68,4.27,2.039,5.842s3.144,2.357,5.354,2.357
		c2.19,0,3.991-0.803,5.4-2.41c1.41-1.607,2.115-3.527,2.115-5.758c0-2.252-0.717-4.155-2.152-5.712s-3.238-2.336-5.408-2.336
		c-2.16,0-3.924,0.766-5.293,2.297C268.908,63.237,268.224,65.143,268.224,67.424z"/>
	<path fill="#93C156" d="M291.452,75.442V59.576h-2.662v-2.647h7.561c2.221,0,3.884,0.157,4.989,0.472s2.031,1.027,2.776,2.139
		c0.746,1.11,1.118,2.42,1.118,3.931c0,1.207-0.246,2.291-0.738,3.249s-1.101,1.665-1.826,2.121s-1.542,0.764-2.449,0.921
		c-0.908,0.157-2.279,0.235-4.115,0.235h-1.46v5.446h2.738v2.646h-8.595v-2.646H291.452z M294.647,67.44h1.825
		c2.079,0,3.519-0.296,4.32-0.889c0.801-0.594,1.202-1.642,1.202-3.143c0-0.953-0.213-1.744-0.639-2.373
		c-0.426-0.629-0.954-1.029-1.582-1.202c-0.629-0.172-1.679-0.258-3.149-0.258h-1.978V67.44z"/>
	<path fill="#93C156" d="M309.311,75.442V59.576h-2.662v-2.647h7.561c2.221,0,3.884,0.157,4.989,0.472s2.031,1.027,2.776,2.139
		c0.746,1.11,1.118,2.42,1.118,3.931c0,1.207-0.246,2.291-0.738,3.249c-0.492,0.958-1.101,1.665-1.826,2.121
		s-1.542,0.764-2.449,0.921c-0.908,0.157-2.279,0.235-4.115,0.235h-1.46v5.446h2.738v2.646h-8.595v-2.646H309.311z M312.506,67.44
		h1.825c2.079,0,3.519-0.296,4.32-0.889c0.801-0.594,1.202-1.642,1.202-3.143c0-0.953-0.213-1.744-0.639-2.373
		c-0.426-0.629-0.953-1.029-1.582-1.202c-0.628-0.172-1.678-0.258-3.148-0.258h-1.978V67.44z"/>
	<path fill="#93C156" d="M327.474,75.442V59.576h-2.738v-2.647h17.585v6.374h-2.617v-3.727h-9.036v6.298h7.864v2.646h-7.864v6.922
		h9.036v-3.85h2.617v6.496h-17.585v-2.646H327.474z"/>
	<path fill="#4A3D2D" d="M246.43,115.215V88.772h-4.563v-4.411h14.426v4.411h-4.335v26.443h10.8v-11.992h4.969v16.404h-25.86v-4.412
		H246.43z"/>
	<path fill="#4A3D2D" d="M295.083,115.342v4.285h-8.417v-2.992c-2.333,2.265-4.936,3.397-7.809,3.397
		c-2.231,0-4.171-0.727-5.819-2.181c-1.648-1.453-2.472-3.312-2.472-5.577c0-2.282,0.875-4.175,2.624-5.68
		c1.749-1.504,3.857-2.256,6.326-2.256c2.298,0,4.521,0.692,6.667,2.079v-2.435c0-1.251-0.118-2.214-0.354-2.89
		c-0.237-0.677-0.791-1.285-1.661-1.826c-0.871-0.541-2.007-0.811-3.41-0.811c-2.417,0-4.167,0.963-5.248,2.89l-4.614-1.217
		c2.044-3.82,5.578-5.729,10.598-5.729c1.842,0,3.435,0.25,4.779,0.748c1.344,0.499,2.345,1.142,3.004,1.928
		c0.659,0.785,1.103,1.634,1.331,2.547c0.228,0.912,0.342,2.366,0.342,4.36v11.358H295.083z M286.184,110.5
		c-2.079-1.622-4.183-2.434-6.312-2.434c-1.335,0-2.451,0.389-3.347,1.166c-0.896,0.777-1.344,1.783-1.344,3.018
		c0,1.149,0.393,2.112,1.179,2.89c0.786,0.778,1.854,1.167,3.207,1.167c2.333,0,4.539-0.98,6.617-2.941V110.5z"/>
	<path fill="#4A3D2D" d="M306.264,95.085v2.966c3.093-2.23,5.916-3.347,8.468-3.347c1.588,0,2.903,0.377,3.942,1.129
		c1.04,0.753,1.72,1.674,2.041,2.764c0.321,1.091,0.482,2.683,0.482,4.778v11.967h4.132v4.285h-8.95v-16.049
		c0-1.859-0.279-3.071-0.836-3.638s-1.242-0.85-2.054-0.85c-2.129,0-4.538,1.039-7.226,3.118v13.133h4.234v4.285h-13.361v-4.285
		h4.31V99.37h-4.31v-4.284H306.264z"/>
	<path fill="#4A3D2D" d="M357.832,115.342v4.285h-9.229v-3.601c-2.399,2.671-5.324,4.006-8.772,4.006c-3.195,0-6-1.09-8.417-3.271
		c-2.417-2.181-3.625-5.282-3.625-9.305c0-4.04,1.242-7.226,3.727-9.559c2.484-2.332,5.29-3.498,8.417-3.498
		c3.312,0,6.203,1.318,8.671,3.955v-9.711h-4.716v-4.284h9.533v30.981H357.832z M332.935,107.331c0,2.704,0.765,4.783,2.294,6.237
		c1.53,1.453,3.359,2.18,5.489,2.18c2.062,0,3.892-0.764,5.489-2.293c1.598-1.53,2.396-3.647,2.396-6.352
		c0-2.722-0.815-4.775-2.446-6.161c-1.632-1.386-3.461-2.079-5.489-2.079c-2.18,0-4.015,0.816-5.501,2.447
		C333.679,102.941,332.935,104.948,332.935,107.331z"/>
	<path fill="#4A3D2D" d="M372.74,119.627v-12.804h4.411v3.118c2.112,3.837,4.876,5.756,8.291,5.756c1.74,0,3.211-0.533,4.411-1.598
		s1.8-2.459,1.8-4.184c0-1.673-0.49-2.877-1.471-3.611c-0.98-0.735-2.831-1.468-5.552-2.194c-3.161-0.845-5.502-1.643-7.023-2.396
		c-1.521-0.752-2.734-1.825-3.638-3.22c-0.904-1.395-1.356-3.047-1.356-4.957c0-2.958,0.984-5.319,2.953-7.085
		c1.969-1.767,4.441-2.65,7.416-2.65c2.823,0,5.442,0.912,7.859,2.738v-2.358h4.311v10.699h-4.311v-2.459
		c-1.809-2.722-4.302-4.082-7.479-4.082c-1.927,0-3.406,0.444-4.438,1.332c-1.03,0.887-1.546,1.947-1.546,3.181
		c0,0.946,0.262,1.78,0.785,2.498c0.524,0.719,1.192,1.246,2.003,1.584c0.812,0.338,2.409,0.812,4.793,1.418
		c3.11,0.808,5.367,1.563,6.77,2.265c1.402,0.703,2.61,1.873,3.625,3.515c1.014,1.639,1.521,3.523,1.521,5.653
		c0,3.011-1.062,5.497-3.183,7.457c-2.121,1.961-4.745,2.941-7.872,2.941c-3.212,0-6.102-1.158-8.671-3.474v2.916H372.74z"/>
	<path fill="#4A3D2D" d="M427.225,115.342v4.285h-9.051v-2.814c-2.824,2.146-5.527,3.22-8.113,3.22c-1.64,0-2.997-0.358-4.07-1.077
		c-1.073-0.718-1.786-1.647-2.142-2.788c-0.354-1.142-0.532-2.98-0.532-5.516V99.37h-3.474v-4.284h8.291v14.958
		c0,1.809,0.051,3.025,0.151,3.651c0.102,0.625,0.396,1.141,0.888,1.546c0.49,0.406,1.106,0.608,1.851,0.608
		c2.231,0,4.614-1.064,7.15-3.194V99.37h-4.336v-4.284h9.152v20.257H427.225z"/>
	<path fill="#4A3D2D" d="M433.816,115.342V99.37h-4.944v-4.284h8.798v5.526c0.541-1.437,1.293-2.628,2.257-3.574
		c0.963-0.947,1.98-1.572,3.054-1.876c1.073-0.305,2.54-0.457,4.399-0.457h1.269v4.868h-0.964c-2.451,0-4.281,0.245-5.49,0.735
		c-1.208,0.49-2.104,1.383-2.688,2.676c-0.583,1.293-0.873,3.611-0.873,6.958v5.4h5.35v4.285h-15.111v-4.285H433.816z"/>
	<path fill="#4A3D2D" d="M462.423,120.033l-8.026-20.663h-4.329v-4.284h12.348v4.284h-3.192l5.283,13.919l5.295-13.919h-3.405
		v-4.284h11.992v4.284h-3.772l-7.829,20.663H462.423z"/>
	<path fill="#4A3D2D" d="M504.856,108.573h-20.638c0.304,2.266,1.2,4.099,2.688,5.502c1.486,1.403,3.389,2.104,5.704,2.104
		c3.363,0,6.025-1.353,7.986-4.057l4.26,1.876c-1.387,2.146-3.187,3.74-5.4,4.78c-2.214,1.039-4.53,1.559-6.947,1.559
		c-3.752,0-6.96-1.17-9.622-3.511s-3.992-5.499-3.992-9.471c0-3.77,1.296-6.871,3.891-9.305s5.574-3.65,8.938-3.65
		c3.296,0,6.282,1.188,8.961,3.562S504.755,103.875,504.856,108.573z M499.887,105.075c-0.338-1.725-1.233-3.283-2.688-4.678
		c-1.453-1.394-3.236-2.092-5.35-2.092c-1.927,0-3.574,0.63-4.943,1.89c-1.369,1.259-2.206,2.885-2.51,4.88H499.887z"/>
	<path fill="#4A3D2D" d="M517.279,119.196l-8.062-19.826h-4.082v-4.284h12.145v4.284h-2.941l5.299,13.59l5.198-13.59h-3.246v-4.284
		h11.891v4.284h-3.65l-12.145,31.261h-8.138v-4.209h4.791L517.279,119.196z"/>
	<path fill="#4A3D2D" d="M539.438,115.342V99.37h-3.804v-4.284h8.62v20.257h3.803v4.285h-12.423v-4.285H539.438z M538.754,86.744
		c0-0.777,0.274-1.453,0.823-2.028c0.55-0.574,1.247-0.861,2.092-0.861c0.795,0,1.479,0.278,2.054,0.836
		c0.575,0.559,0.862,1.242,0.862,2.054s-0.287,1.501-0.862,2.067c-0.574,0.566-1.259,0.849-2.054,0.849
		c-0.812,0-1.5-0.287-2.066-0.862C539.036,88.223,538.754,87.539,538.754,86.744z"/>
	<path fill="#4A3D2D" d="M559.619,95.085v2.966c3.093-2.23,5.916-3.347,8.468-3.347c1.589,0,2.903,0.377,3.942,1.129
		c1.04,0.753,1.72,1.674,2.041,2.764c0.321,1.091,0.482,2.683,0.482,4.778v11.967h4.132v4.285h-8.949v-16.049
		c0-1.859-0.279-3.071-0.837-3.638s-1.242-0.85-2.054-0.85c-2.13,0-4.538,1.039-7.226,3.118v13.133h4.234v4.285h-13.361v-4.285h4.31
		V99.37h-4.31v-4.284H559.619z"/>
	<path fill="#4A3D2D" d="M610.731,95.085v4.284h-4.411v18.28c0,2.468-0.127,4.298-0.381,5.489c-0.253,1.191-0.866,2.409-1.838,3.651
		s-2.43,2.285-4.373,3.13c-1.944,0.845-4.116,1.268-6.517,1.268c-3.617,0-6.845-1.09-9.685-3.271l3.144-3.499
		c2.13,1.657,4.445,2.485,6.947,2.485c1.386,0,2.67-0.266,3.854-0.798c1.184-0.533,2.066-1.18,2.649-1.94s0.959-1.482,1.128-2.167
		s0.254-1.839,0.254-3.462v-2.23c-0.761,0.963-1.952,1.876-3.575,2.737c-1.622,0.862-3.397,1.294-5.324,1.294
		c-3.516,0-6.38-1.218-8.595-3.651c-2.214-2.434-3.321-5.426-3.321-8.975c0-3.888,1.222-7.026,3.664-9.418s5.269-3.589,8.48-3.589
		c3.245,0,6.136,1.293,8.671,3.879v-3.498H610.731z M585.81,107.61c0,2.484,0.723,4.513,2.167,6.085
		c1.445,1.571,3.292,2.357,5.54,2.357c2.197,0,4.09-0.789,5.679-2.37c1.589-1.58,2.384-3.613,2.384-6.098
		c0-2.519-0.795-4.542-2.384-6.071c-1.589-1.53-3.431-2.296-5.526-2.296s-3.93,0.758-5.502,2.271S585.81,105.041,585.81,107.61z"/>
	<path fill="#4A3D2D" d="M613.698,119.627v-6.237h6.236v5.426c0,1.842-0.144,3.271-0.431,4.284c-0.288,1.015-0.9,1.848-1.839,2.498
		c-0.938,0.651-2.26,1.001-3.967,1.052v-2.637c2.027-0.305,3.042-1.563,3.042-3.777c0-0.136-0.009-0.338-0.025-0.608H613.698z"/>
	<path fill="#4A3D2D" d="M636.506,116.98v-15.866h-2.662v-2.646h7.56c2.222,0,3.885,0.157,4.99,0.472s2.03,1.027,2.776,2.138
		c0.745,1.11,1.117,2.421,1.117,3.932c0,1.207-0.245,2.29-0.737,3.249c-0.492,0.958-1.101,1.664-1.825,2.121
		c-0.726,0.456-1.542,0.764-2.449,0.921c-0.908,0.157-2.279,0.235-4.115,0.235h-1.46v5.445h2.738v2.647h-8.595v-2.647H636.506z
		 M639.7,108.979h1.825c2.079,0,3.52-0.296,4.32-0.89c0.801-0.593,1.202-1.641,1.202-3.142c0-0.953-0.213-1.744-0.64-2.373
		c-0.426-0.629-0.953-1.029-1.582-1.202c-0.629-0.172-1.678-0.259-3.148-0.259H639.7V108.979z"/>
	<path fill="#4A3D2D" d="M649.39,119.627v-3.742h3.742v3.742H649.39z"/>
	<path fill="#4A3D2D" d="M675.235,111.017l2.753,1.536c-0.618,2.354-1.868,4.177-3.749,5.47c-1.882,1.293-4.044,1.938-6.488,1.938
		c-3.205,0-5.775-1.039-7.713-3.118c-1.937-2.079-2.905-4.649-2.905-7.713c0-3.356,0.974-6.028,2.921-8.017
		c1.947-1.987,4.487-2.981,7.621-2.981c2.769,0,5.096,0.756,6.982,2.267v-1.932h2.738v6.8h-2.738
		c-0.608-1.379-1.547-2.446-2.814-3.201c-1.268-0.756-2.602-1.135-4.001-1.135c-2.109,0-3.841,0.761-5.194,2.282
		c-1.354,1.521-2.031,3.443-2.031,5.766c0,2.383,0.726,4.33,2.176,5.841c1.45,1.512,3.169,2.267,5.156,2.267
		c1.633,0,3.119-0.523,4.457-1.573C673.744,114.463,674.688,112.964,675.235,111.017z"/>
	<path fill="#4A3D2D" d="M680.909,119.627v-3.742h3.742v3.742H680.909z"/>
</g>
</svg>
