<?xml version="1.0" encoding="utf-8"?>
<!-- Generator: Adobe Illustrator 16.0.4, SVG Export Plug-In . SVG Version: 6.00 Build 0)  -->
<!DOCTYPE svg PUBLIC "-//W3C//DTD SVG 1.1//EN" "http://www.w3.org/Graphics/SVG/1.1/DTD/svg11.dtd">
<svg version="1.1" id="Layer_1" xmlns="http://www.w3.org/2000/svg" xmlns:xlink="http://www.w3.org/1999/xlink" x="0px" y="0px"
	 width="20px" height="20px" viewBox="0 0 20 20" enable-background="new 0 0 20 20" xml:space="preserve">
<polygon fill="#493B2E" points="10.875,16 2.549,16 2.549,9.122 3.273,9.122 3.273,15.276 10.151,15.276 10.151,9.122 10.875,9.122 
	"/>
<polygon fill="#493B2E" points="17.271,16 10.271,16 10.271,11.414 10.996,11.414 10.996,15.276 16.547,15.276 16.547,11.414 
	17.271,11.414 "/>
<polygon fill="#493B2E" points="2.202,10.344 1.689,9.831 6.788,4.733 11.886,9.831 11.374,10.344 6.788,5.757 "/>
<polygon fill="#493B2E" points="10.648,12.032 10.137,11.521 13.787,7.87 17.437,11.521 16.925,12.032 13.787,8.895 "/>
<rect x="13.409" y="4.657" fill="#493B2E" width="0.725" height="2.051"/>
<rect x="15.792" y="5.466" transform="matrix(0.7071 0.7071 -0.7071 0.7071 9.4112 -9.4844)" fill="#493B2E" width="0.724" height="2.304"/>
<rect x="10.286" y="6.255" transform="matrix(0.7071 0.7071 -0.7071 0.7071 7.9796 -6.0291)" fill="#493B2E" width="1.962" height="0.724"/>
<path fill="#493B2E" d="M7.738,15.879H5.808v-3.017h1.931V15.879z M6.531,15.155h0.482v-1.568H6.531V15.155z"/>
<g>
	<path fill="#4A3D2D" d="M12.494,12.772h1.048v-1.047h0.593v1.047h1.048v0.596h-1.048v1.047h-0.593v-1.047h-1.048V12.772z"/>
</g>
</svg>
