<?xml version="1.0" encoding="utf-8"?>
<!-- Generator: Adobe Illustrator 16.0.4, SVG Export Plug-In . SVG Version: 6.00 Build 0)  -->
<!DOCTYPE svg PUBLIC "-//W3C//DTD SVG 1.1//EN" "http://www.w3.org/Graphics/SVG/1.1/DTD/svg11.dtd">
<svg version="1.1" id="Layer_1" xmlns="http://www.w3.org/2000/svg" xmlns:xlink="http://www.w3.org/1999/xlink" x="0px" y="0px"
	 width="20px" height="20px" viewBox="0 0 20 20" enable-background="new 0 0 20 20" xml:space="preserve">
<rect x="9.461" y="3.578" fill="#493B2E" width="0.693" height="1.964"/>
<rect x="11.743" y="4.352" transform="matrix(0.7068 0.7075 -0.7075 0.7068 7.4047 -6.9533)" fill="#493B2E" width="0.694" height="2.206"/>
<rect x="6.47" y="5.108" transform="matrix(0.7071 0.7071 -0.7071 0.7071 6.0274 -3.6417)" fill="#493B2E" width="1.879" height="0.693"/>
<polygon fill="#493B2E" points="13.736,16.749 5.763,16.749 5.763,10.163 6.457,10.163 6.457,16.056 13.043,16.056 13.043,10.163 
	13.736,10.163 "/>
<polygon fill="#493B2E" points="5.431,11.333 4.94,10.843 9.822,5.961 14.703,10.843 14.213,11.333 9.822,6.942 "/>
<path fill="#493B2E" d="M10.731,16.634H8.883v-2.889h1.849V16.634z M9.576,15.941h0.463v-1.503H9.576V15.941z"/>
</svg>
