<?xml version="1.0" encoding="utf-8"?>
<!-- Generator: Adobe Illustrator 16.0.4, SVG Export Plug-In . SVG Version: 6.00 Build 0)  -->
<!DOCTYPE svg PUBLIC "-//W3C//DTD SVG 1.1//EN" "http://www.w3.org/Graphics/SVG/1.1/DTD/svg11.dtd">
<svg version="1.1" id="Layer_1" xmlns="http://www.w3.org/2000/svg" xmlns:xlink="http://www.w3.org/1999/xlink" x="0px" y="0px"
	 width="20px" height="20px" viewBox="0 0 20 20" enable-background="new 0 0 20 20" xml:space="preserve">
<g id="cRq0r8.tif">
	<g>
		<path fill-rule="evenodd" clip-rule="evenodd" d="M6.804,4.032c0.96,0.6,1.448,1.536,1.795,2.56
			c0.127,0.376,0.009,0.739-0.272,1.021C8.1,7.839,7.856,8.053,7.602,8.247C7.07,8.65,6.947,9.029,7.187,9.654
			c0.27,0.704,0.737,1.279,1.227,1.837c0.451,0.515,0.922,1.014,1.527,1.355c0.633,0.358,1.011,0.3,1.526-0.218
			c0.182-0.182,0.377-0.351,0.574-0.516c0.434-0.36,0.913-0.39,1.395-0.126c0.684,0.375,1.264,0.887,1.765,1.48
			c0.134,0.159,0.201,0.375,0.3,0.564c0,0.032,0,0.064,0,0.097c-0.074,0.359-0.308,0.605-0.579,0.828
			c-0.13,0.107-0.254,0.224-0.38,0.335c-0.546,0.483-1.186,0.764-1.902,0.868c-1.221,0.179-2.303-0.211-3.32-0.831
			C8.312,14.717,7.47,13.91,6.7,13.027c-0.978-1.122-1.841-2.318-2.302-3.757c-0.308-0.958-0.37-1.922-0.037-2.89
			c0.371-1.079,1.166-1.779,2.104-2.349C6.579,4.032,6.691,4.032,6.804,4.032z"/>
	</g>
</g>
</svg>
