<?xml version="1.0" encoding="utf-8"?>
<!-- Generator: Adobe Illustrator 16.0.4, SVG Export Plug-In . SVG Version: 6.00 Build 0)  -->
<!DOCTYPE svg PUBLIC "-//W3C//DTD SVG 1.1//EN" "http://www.w3.org/Graphics/SVG/1.1/DTD/svg11.dtd">
<svg version="1.1" id="Layer_1" xmlns="http://www.w3.org/2000/svg" xmlns:xlink="http://www.w3.org/1999/xlink" x="0px" y="0px"
	 width="20px" height="20px" viewBox="0 0 20 20" enable-background="new 0 0 20 20" xml:space="preserve">
<path fill="#493B2E" d="M15.883,11.3H4.88V5.421h11.002L13.782,8.36L15.883,11.3z M5.615,10.564h8.839L12.88,8.36l1.574-2.205H5.615
	V10.564z"/>
<rect x="4.88" y="4.931" fill="#493B2E" width="0.735" height="12.002"/>
<path fill="#493B2E" d="M5.248,5.421c-0.608,0-1.103-0.496-1.103-1.102c0-0.608,0.494-1.104,1.103-1.104
	c0.607,0,1.102,0.495,1.102,1.104C6.35,4.925,5.855,5.421,5.248,5.421z M5.248,3.951c-0.203,0-0.368,0.164-0.368,0.368
	c0,0.202,0.165,0.367,0.368,0.367c0.202,0,0.367-0.165,0.367-0.367C5.615,4.115,5.45,3.951,5.248,3.951z"/>
</svg>
