<?xml version="1.0" encoding="utf-8"?>
<!-- Generator: Adobe Illustrator 16.0.4, SVG Export Plug-In . SVG Version: 6.00 Build 0)  -->
<!DOCTYPE svg PUBLIC "-//W3C//DTD SVG 1.1//EN" "http://www.w3.org/Graphics/SVG/1.1/DTD/svg11.dtd">
<svg version="1.1" id="Layer_1" xmlns="http://www.w3.org/2000/svg" xmlns:xlink="http://www.w3.org/1999/xlink" x="0px" y="0px"
	 width="20px" height="20px" viewBox="0 0 20 20" enable-background="new 0 0 20 20" xml:space="preserve">
<g>
	<polygon fill="#493B2E" points="12.686,15.572 3.178,15.572 3.178,3.75 12.686,3.75 12.686,6.706 11.916,6.706 11.916,4.521 
		3.949,4.521 3.949,14.801 11.916,14.801 11.916,13.387 12.686,13.387 	"/>
	<rect x="4.648" y="6.835" fill="#493B2E" width="4.569" height="0.77"/>
	<rect x="4.648" y="9.148" fill="#493B2E" width="3.413" height="0.77"/>
	<rect x="4.648" y="11.46" fill="#493B2E" width="4.183" height="0.771"/>
	<g>
		<path fill="#493B2E" d="M11.4,13.645c-2.054,0-3.725-1.672-3.725-3.727c0-2.054,1.671-3.726,3.725-3.726
			c2.056,0,3.728,1.672,3.728,3.726C15.128,11.973,13.456,13.645,11.4,13.645z M11.4,6.962c-1.628,0-2.954,1.327-2.954,2.956
			c0,1.63,1.326,2.956,2.954,2.956c1.631,0,2.957-1.326,2.957-2.956C14.357,8.289,13.031,6.962,11.4,6.962z"/>
		
			<rect x="13.248" y="13.13" transform="matrix(0.6587 0.7524 -0.7524 0.6587 15.1566 -6.3828)" fill="#493B2E" width="2.732" height="0.772"/>
		
			<rect x="14.404" y="14.031" transform="matrix(0.6582 0.7529 -0.7529 0.6582 16.5347 -6.8132)" fill="#493B2E" width="2.732" height="1.541"/>
	</g>
</g>
</svg>
