<?xml version="1.0" encoding="utf-8"?>
<!-- Generator: Adobe Illustrator 16.0.4, SVG Export Plug-In . SVG Version: 6.00 Build 0)  -->
<!DOCTYPE svg PUBLIC "-//W3C//DTD SVG 1.1//EN" "http://www.w3.org/Graphics/SVG/1.1/DTD/svg11.dtd">
<svg version="1.1" id="Layer_1" xmlns="http://www.w3.org/2000/svg" xmlns:xlink="http://www.w3.org/1999/xlink" x="0px" y="0px"
	 width="20px" height="20px" viewBox="0 0 20 20" enable-background="new 0 0 20 20" xml:space="preserve">
<g>
	<path fill="#493B2E" d="M18.156,6.736L18.156,6.736l-2.282-2.282l-0.001,0l-0.252-0.252L13.93,5.891l2.535,2.535l0.254-0.253v0
		l0.553-0.553L18.156,6.736L18.156,6.736z M15.225,5.61l1.521,1.521l-0.281,0.28l-1.521-1.521L15.225,5.61z"/>
	<path fill="#493B2E" d="M13.682,6.138l-1.338,1.338V6.005H3.5V17h8.844v-4.422h-0.032l3.905-3.905L13.682,6.138z M15.203,8.673
		l-3.912,3.912l-2.028,0.508l0.507-2.028l3.912-3.913L15.203,8.673z M4.217,16.283v-9.56h7.41v1.47l-2.505,2.505l-0.081,0.325H4.867
		v0.718h3.994l-0.358,1.435H4.867v0.717h3.456l-0.046,0.187l3.35-0.839v3.043H4.217z"/>
	<rect x="4.867" y="8.873" fill="#493B2E" width="4.25" height="0.718"/>
</g>
</svg>
